<?xml version="1.0" encoding="UTF-8" standalone="no"?>
<svg
   xmlns:dc="http://purl.org/dc/elements/1.1/"
   xmlns:cc="http://creativecommons.org/ns#"
   xmlns:rdf="http://www.w3.org/1999/02/22-rdf-syntax-ns#"
   xmlns:svg="http://www.w3.org/2000/svg"
   xmlns="http://www.w3.org/2000/svg"
   width="20"
   height="20"
   viewBox="0 0 19.999999 20"
   id="svg4159"
   version="1.1">
  <defs
     id="defs4161" />
  <g
     id="layer1"
     transform="matrix(0.14273605,0,0,0.11948825,-21.49744,-14.350534)">
    <path
       style="fill:#000000;stroke:none"
       d="m 221.69336,120.10352 c -2.46423,0.072 -4.54297,1.23632 -7.21484,3.62695 -2.25,2 -5.25,4 -6.5,4.5 -1.25,0.375 -2.25,1.25 -2.25,1.875 0,0.625 -1,1.125 -2.375,1.125 -2.75,0 -5.625,3 -4.875,5.25 0.375,0.875 -1,2.625 -3.125,3.875 -2.75,1.625 -3.5,2.875 -3,5 0.5,2 -0.375,3.625 -3,5.875 -9.25,7.875 -16.375,15.625 -16.75,18.375 -0.125,1.25 -0.875,3.75 -1.625,5.625 -1.625,4 -0.875,7.25 1.75,7.25 1,0 1.75,0.75 1.75,1.625 0,1 1.375,3 3.125,4.625 4.75,4.375 3.75,5.25 -2.375,2.25 -4.75,-2.25 -5.875,-2.375 -7.625,-1 -1.125,0.875 -1.75,2.375 -1.375,3.375 0.375,0.875 -0.125,1.625 -1.125,1.625 -2.625,0 -5.75,5.375 -6,10.5 -0.25,2.375 -1,5.125 -1.875,6 -0.875,0.875 -1.5,2.5 -1.5,3.625 0,1.125 -1.125,2.375 -2.5,2.75 -3.75,1 -3.375,6.875 0.5,8.25 1.625,0.625 3.25,2.375 3.625,3.75 0.375,1.75 1.875,2.5 5.375,2.875 5.5,0.5 6.75,2.375 2.75,4.125 -1.625,0.75 -3,2.625 -3.25,4.375 -0.25,1.75 -1,3.625 -1.625,4.375 -2.125,2.125 -1.125,4.125 2.75,5.5 5,1.74999 17,1.74999 18,0.125 0.5,-0.75 2.125,-0.375 4.375,1.25 3.75,2.74999 6.25,3.25 6.25,1.25 0,-1.62499 7,-0.25 13,2.5 2.625,1.25 5.5,2 6.25,1.75 2,-0.75 6.5,4.375 7.5,8.5 1,4.5 -1.875,11.5 -5.875,14.125 -1.63982,1.07613 -4.54025,1.77078 -13.42579,2.27148 0.73328,1.73594 1.38083,3.3001 1.88672,4.58399 7.80812,0.004 13.82068,0.0195 22.16407,0.0195 7.94634,0 13.6323,-0.0161 21.08984,-0.0195 -0.2419,-1.68485 -0.0541,-3.41186 0.58008,-5.09375 -0.37283,-0.0472 -0.81215,-0.0874 -1.16992,-0.13672 -7.375,-1.125 -14.125,-2.625 -14.75,-3.25 -2.125,-2.125 -2.5,-10.625 -0.75,-15.75 2.875,-8.625 6.125,-10.00001 25.875,-10.875 15.5,-0.625 17.75,-1 23.375,-4.125 6.125,-3.375 10.5,-8.5 10.5,-12.5 0,-1.125 -0.875,-2 -1.875,-2 -1.25,0 -0.75,-1 1.25,-3.125 2.625,-2.5 3.125,-4.25 3.125,-10 0,-7.62501 -2.625,-15.25 -5.5,-16.375 -1.75,-0.625 -1.75,-1.125 0,-4.625 1.5,-2.75 1.875,-5.75 1.375,-10.75 -0.75,-7.875 -5,-17.625 -7.75,-17.625 -0.875,0 -1.875,-0.75 -2.125,-1.75 -0.375,-1.5 -1.125,-1.5 -5.375,-0.125 -5.25,1.875 -7.5,0.75 -6.375,-3.125 0.25,-1 0.625,-2.75 0.875,-3.75 0.25,-1 -0.75,-2.375 -2.375,-3.125 -1.5,-0.625 -2.5,-1.875 -2.25,-2.75 0.375,-0.875 0,-2.25 -0.875,-3.125 -0.875,-0.875 -2.125,-3.375 -2.75,-5.375 -0.875,-2.375 -2.25,-3.875 -4.125,-4.125 -1.75,-0.25 -2.75,-1.25 -2.75,-2.75 0,-1.25 -0.5,-2.75 -1.25,-3.125 -0.625,-0.375 -1.25,-2.75 -1.25,-5.25 0,-4.375 0,-4.5 -4.375,-3.75 -3.25,0.5 -4.375,0.25 -4.375,-1.125 0,-2.125 -1.75,-2.25 -5.25,-0.375 -2.375,1.25 -2.5,1.125 -1.875,-1.25 0.5,-2.125 -0.25,-3 -3.75,-4.5 -2.84375,-1.20313 -4.99353,-1.80792 -6.91016,-1.75195 z m -26.30859,166.0332 c -0.0917,0.43474 -0.19047,0.87384 -0.28907,1.3164 0.49125,3.9e-4 0.94883,0.002 1.45313,0.002 -0.36569,-0.42219 -0.78847,-0.88875 -1.16406,-1.31836 z"
       id="path6" />
  </g>
</svg>
