<?xml version="1.0" encoding="UTF-8" standalone="no"?>
<svg
   xmlns:dc="http://purl.org/dc/elements/1.1/"
   xmlns:cc="http://creativecommons.org/ns#"
   xmlns:rdf="http://www.w3.org/1999/02/22-rdf-syntax-ns#"
   xmlns:svg="http://www.w3.org/2000/svg"
   xmlns="http://www.w3.org/2000/svg"
   id="svg2"
   preserveAspectRatio="xMidYMid meet"
   viewBox="0 0 293.8317 184.00456"
   height="184.00456pt"
   width="293.8317pt"
   version="1.1">
  <defs
     id="defs20" />
  <g
     style="fill:#000000;stroke:none"
     id="g4"
     transform="matrix(0.1,0,0,-0.1,-38,261.90456)">
    <path
       id="path6"
       d="m 1790,2590 c -18,-16 -42,-32 -52,-36 -10,-3 -18,-10 -18,-15 0,-5 -8,-9 -19,-9 -22,0 -45,-24 -39,-42 3,-7 -8,-21 -25,-31 -22,-13 -28,-23 -24,-40 4,-16 -3,-29 -24,-47 -74,-63 -131,-125 -134,-147 -1,-10 -7,-30 -13,-45 -13,-32 -7,-58 14,-58 8,0 14,-6 14,-13 0,-8 11,-24 25,-37 38,-35 30,-42 -19,-18 -38,18 -47,19 -61,8 -9,-7 -14,-19 -11,-27 3,-7 -1,-13 -9,-13 -21,0 -46,-43 -48,-84 -2,-19 -8,-41 -15,-48 -7,-7 -12,-20 -12,-29 0,-9 -9,-19 -20,-22 -30,-8 -27,-55 4,-66 13,-5 26,-19 29,-30 3,-14 15,-20 43,-23 44,-4 54,-19 22,-33 -13,-6 -24,-21 -26,-35 -2,-14 -8,-29 -13,-35 -17,-17 -9,-33 22,-44 40,-14 136,-14 144,-1 4,6 17,3 35,-10 30,-22 50,-26 50,-10 0,13 56,2 104,-20 21,-10 44,-16 50,-14 16,6 52,-35 60,-68 8,-36 -15,-92 -47,-113 -32,-21 -119,-24 -834,-30 -343,-4 -543,-9 -543,-15 0,-7 519,-10 1462,-10 943,0 1459,3 1452,10 -6,6 -235,11 -594,13 -469,3 -607,7 -694,19 -59,9 -113,21 -118,26 -17,17 -20,85 -6,126 23,69 49,80 207,87 124,5 142,8 187,33 49,27 84,68 84,100 0,9 -7,16 -15,16 -10,0 -6,8 10,25 21,20 25,34 25,80 0,61 -21,122 -44,131 -14,5 -14,9 0,37 12,22 15,46 11,86 -6,63 -40,141 -62,141 -7,0 -15,6 -17,14 -3,12 -9,12 -43,1 -42,-15 -60,-6 -51,25 2,8 5,22 7,30 2,8 -6,19 -19,25 -12,5 -20,15 -18,22 3,7 0,18 -7,25 -7,7 -17,27 -22,43 -7,19 -18,31 -33,33 -14,2 -22,10 -22,22 0,10 -4,22 -10,25 -5,3 -10,22 -10,42 0,35 0,36 -35,30 -26,-4 -35,-2 -35,9 0,17 -14,18 -42,3 -19,-10 -20,-9 -15,10 4,17 -2,24 -30,36 -52,22 -75,19 -113,-15 z" />
    <path
       id="path8"
       d="m 452,968 c -40,-90 -72,-166 -72,-170 0,-5 6,-8 14,-8 9,0 23,26 36,65 l 22,66 66,-3 67,-3 24,-62 c 21,-53 28,-63 49,-63 15,0 22,5 19,13 -19,48 -99,241 -116,280 -11,26 -24,47 -29,47 -4,0 -41,-73 -80,-162 z m 87,55 c 10,-21 22,-48 25,-60 7,-22 5,-23 -44,-23 -58,0 -56,-6 -22,77 9,24 18,43 19,43 2,0 11,-17 22,-37 z" />
    <path
       id="path10"
       d="m 1154,1121 c -2,-2 -4,-78 -4,-168 l 0,-163 25,0 c 24,0 25,2 25,75 l 0,75 28,0 c 83,0 142,44 142,106 0,45 -29,73 -77,76 -72,3 -135,3 -139,-1 z m 154,-34 c 43,-44 -5,-127 -74,-127 l -34,0 0,76 0,77 46,-6 c 25,-2 53,-12 62,-20 z" />
    <path
       id="path12"
       d="m 1860,957 c 0,-90 3,-166 6,-170 3,-3 12,-3 20,0 10,4 14,26 14,84 0,43 4,79 8,79 11,0 50,-42 96,-105 32,-43 80,-74 94,-60 2,2 -23,38 -57,79 -62,76 -72,96 -47,96 8,0 28,12 45,26 38,31 42,83 11,114 -17,17 -33,20 -105,20 l -85,0 0,-163 z m 152,126 c 45,-41 -1,-113 -72,-113 l -40,0 0,71 0,72 47,-7 c 25,-3 55,-14 65,-23 z" />
    <path
       id="path14"
       d="m 2582,953 c 3,-160 4,-168 23,-168 19,0 20,8 23,168 l 2,167 -25,0 -25,0 2,-167 z" />
    <path
       id="path16"
       d="m 3140,950 0,-171 87,3 c 58,2 88,7 91,16 3,9 -15,12 -67,12 l -71,0 0,155 c 0,148 -1,155 -20,155 -19,0 -20,-7 -20,-170 z" />
  </g>
</svg>
