<?xml version="1.0" encoding="UTF-8" ?>
<!DOCTYPE svg PUBLIC "-//W3C//DTD SVG 1.1//EN" "http://www.w3.org/Graphics/SVG/1.1/DTD/svg11.dtd">
<svg width="189pt" height="133pt" viewBox="0 0 189 133" version="1.1" xmlns="http://www.w3.org/2000/svg">
<g id="#040404ff">
<path fill="#040404" opacity="1.00" d=" M 0.00 0.00 L 0.21 0.00 C 0.16 0.06 0.05 0.18 0.00 0.24 L 0.00 0.00 Z" />
<path fill="#040404" opacity="1.00" d=" M 160.73 21.32 L 161.92 20.66 C 162.56 21.75 163.56 22.70 163.82 23.97 C 164.57 27.79 166.12 31.45 166.29 35.37 C 166.02 36.87 166.48 38.31 166.90 39.73 C 164.61 38.80 163.73 36.74 164.44 34.37 C 162.88 35.87 163.45 38.22 163.04 40.13 L 161.06 38.93 L 160.62 40.34 C 162.86 40.16 165.10 40.03 167.35 40.03 C 165.43 43.08 161.07 40.99 159.11 44.08 C 159.38 46.35 157.84 47.87 156.32 49.29 C 155.38 53.24 153.83 57.00 152.28 60.74 C 152.92 61.45 153.57 62.15 154.22 62.86 C 155.55 62.30 156.97 62.02 158.38 61.71 C 161.27 60.83 164.30 60.46 167.16 59.43 C 165.29 57.14 165.86 54.23 167.61 52.13 C 167.16 51.68 166.27 50.79 165.82 50.35 C 166.23 49.76 167.03 48.58 167.44 47.99 C 168.45 48.87 168.79 50.23 169.49 51.34 C 170.72 50.60 171.63 49.46 172.47 48.32 C 171.20 48.29 168.92 50.25 168.70 47.97 C 169.26 45.98 170.17 44.10 170.41 42.02 C 169.95 42.66 169.03 43.93 168.56 44.57 C 167.70 45.47 166.87 46.40 166.08 47.37 C 166.03 47.88 165.94 48.91 165.89 49.43 C 164.63 48.43 165.13 46.72 164.96 45.35 C 168.09 43.73 169.72 39.95 173.59 39.34 C 174.33 41.86 169.20 41.77 170.93 44.13 C 172.33 43.19 175.44 42.71 174.10 40.42 C 175.32 39.28 176.05 37.48 177.68 36.86 C 179.12 38.11 180.46 39.50 182.10 40.51 C 180.05 44.78 183.74 48.64 182.99 52.95 C 183.33 55.17 181.08 54.98 179.59 54.60 C 179.94 53.80 180.53 53.43 181.37 53.50 L 181.84 53.43 C 182.20 50.99 180.92 48.61 180.44 46.25 C 179.37 43.37 179.13 40.18 177.41 37.57 C 176.94 40.17 176.33 42.76 176.13 45.41 C 176.66 44.07 177.08 42.69 177.40 41.29 C 178.56 44.69 179.80 48.09 180.31 51.67 C 179.52 51.13 178.75 50.57 177.99 50.00 C 178.25 50.76 178.77 52.27 179.02 53.02 C 178.18 52.71 176.49 52.09 175.65 51.78 C 175.78 54.04 177.86 53.21 179.30 53.30 L 179.08 55.31 C 178.46 55.24 177.23 55.12 176.61 55.05 C 177.43 55.85 178.26 56.63 179.11 57.41 C 178.93 58.67 178.72 60.92 176.70 59.80 C 178.98 59.05 178.52 55.96 176.18 57.86 C 173.88 57.80 172.63 59.65 172.83 61.79 C 171.52 63.05 170.19 64.28 168.84 65.48 C 168.71 62.07 172.72 60.44 172.59 56.91 L 171.08 56.85 C 171.05 57.80 170.99 59.70 170.96 60.65 C 170.33 59.71 169.71 58.76 169.09 57.82 C 168.95 59.33 168.83 60.83 168.71 62.34 C 168.34 62.00 167.59 61.33 167.22 61.00 C 167.08 61.42 166.78 62.26 166.63 62.68 L 164.76 62.31 C 165.29 63.61 165.84 64.91 166.40 66.20 C 166.77 65.47 167.49 64.03 167.85 63.30 C 168.08 64.03 168.55 65.48 168.79 66.20 L 169.02 66.92 C 165.88 66.46 163.04 68.01 161.71 70.87 C 159.46 71.21 157.00 71.31 155.01 70.02 C 153.22 70.98 151.19 71.06 149.20 71.05 C 146.08 74.14 147.06 79.17 144.09 82.45 C 143.41 80.28 142.83 78.07 142.67 75.79 C 143.10 76.62 143.97 78.27 144.41 79.10 L 144.85 79.27 C 145.44 77.07 145.97 74.84 146.11 72.55 C 146.63 70.91 147.09 69.26 147.57 67.60 C 147.89 66.76 147.51 63.47 149.26 64.55 C 148.22 67.74 150.78 68.75 153.03 69.75 C 153.02 69.07 152.98 67.71 152.96 67.03 C 152.11 67.03 150.41 67.02 149.56 67.02 C 149.91 65.82 150.29 64.62 150.68 63.43 C 150.39 60.40 150.35 57.28 149.28 54.40 C 148.05 54.59 146.83 54.76 145.60 54.93 C 148.13 49.81 148.15 43.89 150.35 38.65 C 151.41 38.74 152.46 38.83 153.51 38.93 C 153.30 38.38 152.88 37.29 152.67 36.75 C 153.29 36.66 154.52 36.48 155.13 36.39 C 154.61 36.39 153.56 36.40 153.04 36.40 C 153.00 35.84 152.91 34.71 152.87 34.15 C 152.40 34.58 151.45 35.46 150.98 35.90 C 149.98 34.39 149.57 32.78 150.72 31.26 C 151.40 30.81 152.76 29.91 153.44 29.46 C 153.58 29.34 153.85 29.11 153.99 29.00 C 154.44 28.62 154.44 28.62 153.99 29.00 C 153.85 29.11 153.58 29.34 153.44 29.46 C 150.77 30.21 148.39 31.74 146.62 33.87 C 148.33 34.81 150.98 36.00 150.36 38.48 C 148.69 37.22 147.06 35.86 145.85 34.14 C 146.65 32.26 147.84 30.57 149.11 28.98 C 150.42 28.98 151.72 28.97 153.03 28.95 L 152.49 27.49 C 153.51 27.26 154.54 27.02 155.56 26.76 C 156.40 24.42 158.63 23.07 160.42 21.51 C 160.50 21.46 160.66 21.37 160.73 21.32 M 156.12 26.59 C 156.21 27.03 156.40 27.93 156.49 28.38 C 157.57 27.10 159.07 27.04 160.59 27.24 C 160.61 27.96 160.63 29.41 160.65 30.14 C 161.21 30.90 162.34 32.41 162.90 33.17 C 161.67 33.18 160.43 33.21 159.20 33.25 L 159.36 31.55 C 159.05 31.34 158.43 30.91 158.13 30.70 C 158.33 32.31 158.56 33.92 158.81 35.53 C 158.27 35.76 157.19 36.21 156.65 36.44 C 156.79 37.89 157.17 39.36 156.83 40.81 C 156.36 40.76 155.40 40.67 154.93 40.63 C 154.59 42.14 154.71 43.69 154.83 45.22 C 154.27 45.28 153.15 45.42 152.59 45.49 C 153.35 48.27 152.11 50.99 151.73 53.71 C 149.67 52.74 150.24 50.02 149.57 48.25 C 149.31 48.86 148.80 50.09 148.54 50.71 C 150.62 52.53 150.86 55.30 151.31 57.84 C 151.57 57.73 152.08 57.52 152.34 57.41 C 152.18 56.44 152.02 55.47 151.87 54.50 C 153.00 53.37 153.86 52.02 154.70 50.68 C 154.34 50.62 153.62 50.51 153.26 50.45 C 153.68 48.58 153.83 46.57 154.99 44.98 L 155.02 48.40 L 155.83 48.45 C 156.08 47.25 156.33 46.05 156.60 44.85 C 156.50 44.26 156.30 43.08 156.20 42.49 L 156.95 41.97 C 157.65 41.75 159.04 41.33 159.74 41.12 C 159.75 40.98 159.78 40.70 159.80 40.57 C 156.94 41.68 157.46 37.95 157.15 36.38 C 157.66 36.39 158.70 36.40 159.22 36.40 C 159.31 35.65 159.47 34.16 159.55 33.42 C 160.47 33.55 162.30 33.81 163.21 33.94 C 163.26 33.59 163.35 32.90 163.39 32.55 C 162.56 31.00 161.79 29.35 162.64 27.60 C 159.03 27.44 163.64 22.77 162.06 20.93 C 160.44 23.22 159.23 26.10 156.12 26.59 M 153.59 32.08 C 154.18 32.70 154.18 32.70 153.59 32.08 M 154.93 33.04 C 155.47 33.70 155.47 33.70 154.93 33.04 M 151.21 40.22 C 151.22 40.87 151.23 42.17 151.24 42.82 C 152.68 43.20 152.66 39.76 151.21 40.22 M 149.46 47.14 C 150.95 47.79 151.72 45.30 150.88 44.34 C 149.71 44.19 149.03 46.23 149.46 47.14 M 176.03 47.87 C 175.06 47.85 174.02 47.66 173.13 48.18 C 173.25 50.83 174.30 53.41 173.88 56.11 C 173.60 55.23 173.05 53.47 172.77 52.58 C 172.25 53.60 171.86 54.68 171.50 55.76 C 172.14 56.13 172.78 56.49 173.43 56.86 C 173.97 55.64 175.07 54.96 176.20 54.36 C 173.37 53.76 174.24 49.97 174.32 47.93 C 174.88 48.17 176.01 48.65 176.57 48.89 C 177.06 47.80 177.54 46.70 178.01 45.59 C 177.20 46.22 176.54 46.98 176.03 47.87 M 163.30 60.94 L 163.07 61.59 C 164.97 63.43 165.48 59.62 163.30 60.94 M 158.70 63.60 C 158.25 63.49 157.35 63.27 156.90 63.16 C 157.87 63.65 158.85 64.13 159.82 64.62 C 160.66 63.73 161.48 62.84 162.29 61.92 C 160.56 61.61 159.37 62.17 158.70 63.60 M 153.14 64.27 C 153.78 64.81 153.78 64.81 153.14 64.27 M 155.30 64.28 C 155.98 64.94 155.98 64.94 155.30 64.28 M 164.05 64.00 C 164.07 64.42 164.12 65.26 164.14 65.68 L 164.87 65.63 C 164.85 65.21 164.80 64.37 164.78 63.94 L 164.05 64.00 M 157.86 67.60 C 156.61 67.19 155.32 66.92 154.01 66.79 C 154.00 67.43 154.00 68.70 154.00 69.33 L 155.35 68.34 C 157.51 68.60 159.67 68.78 161.84 68.88 C 161.63 67.32 162.25 66.40 163.68 66.11 L 163.26 64.82 C 161.52 65.84 159.89 67.21 157.86 67.60 Z" />
<path fill="#040404" opacity="1.00" d=" M 134.24 26.28 C 136.07 24.23 139.04 22.57 141.78 21.76 C 144.04 25.49 143.46 29.97 144.75 34.01 C 143.79 35.95 144.17 38.03 144.81 40.00 C 142.94 39.99 141.08 40.00 139.21 40.00 C 136.83 45.62 138.22 52.09 141.31 57.12 C 141.55 56.87 142.04 56.36 142.29 56.11 C 142.84 56.32 143.95 56.74 144.50 56.96 L 144.97 57.14 C 144.98 58.80 144.71 60.44 144.07 61.98 C 145.32 61.25 146.57 59.98 148.05 61.00 C 149.81 62.19 146.38 63.79 145.64 64.78 C 145.49 65.30 145.18 66.32 145.03 66.84 C 145.74 66.35 147.16 65.37 147.88 64.88 C 147.42 65.78 146.50 67.57 146.05 68.47 C 146.01 69.83 146.04 71.19 146.11 72.55 C 145.63 72.21 144.66 71.52 144.17 71.18 C 144.49 72.94 144.84 74.70 145.13 76.47 L 143.51 76.60 C 143.65 76.02 143.93 74.87 144.07 74.30 C 142.21 74.43 140.32 74.44 138.51 74.95 C 140.23 72.35 140.17 69.12 141.13 66.23 C 140.43 66.15 139.02 65.98 138.32 65.90 C 136.08 64.57 135.51 61.51 133.07 60.69 C 133.01 60.14 132.91 59.05 132.85 58.50 C 130.60 55.87 131.34 52.28 129.84 49.34 C 127.44 45.40 131.56 41.12 129.26 37.11 L 129.38 36.06 C 130.35 35.87 131.32 35.70 132.30 35.54 C 132.24 36.47 132.12 38.32 132.05 39.25 C 132.28 38.60 132.73 37.31 132.96 36.66 C 133.85 37.22 134.74 37.78 135.64 38.33 C 134.88 40.37 135.71 43.29 133.57 44.61 C 134.53 44.65 135.49 44.67 136.45 44.64 C 135.63 42.30 136.18 40.77 138.11 40.06 C 137.44 38.95 136.55 38.06 135.42 37.41 C 135.59 36.55 135.91 34.82 136.08 33.96 L 135.26 34.52 L 134.88 36.92 C 134.40 36.14 133.92 35.36 133.44 34.58 C 132.10 34.92 130.74 35.21 129.38 35.47 C 130.53 32.77 132.15 30.30 133.28 27.59 C 131.60 28.97 129.99 30.43 128.32 31.82 C 128.53 33.28 128.76 34.73 129.06 36.17 C 126.10 36.68 126.71 33.02 127.26 31.30 C 129.12 29.18 131.53 26.98 134.24 26.28 C 134.33 26.35 134.50 26.51 134.58 26.58 C 134.50 26.51 134.33 26.35 134.24 26.28 M 137.10 25.17 C 136.97 25.59 136.71 26.43 136.58 26.85 L 138.68 26.03 C 138.55 27.06 138.28 29.13 138.14 30.16 C 137.88 30.59 137.34 31.46 137.08 31.89 C 137.23 33.28 137.38 34.67 137.52 36.06 C 138.10 33.11 138.86 30.18 139.27 27.20 C 142.41 28.97 142.11 24.91 141.00 23.16 C 139.72 23.89 138.87 26.70 137.10 25.17 M 136.58 26.85 C 135.92 27.47 135.92 27.47 136.58 26.85 M 140.68 28.85 C 140.74 32.23 142.24 35.72 139.87 38.59 C 140.30 38.32 141.18 37.77 141.62 37.50 C 142.00 37.96 142.77 38.87 143.16 39.33 C 143.43 36.63 141.27 34.24 142.47 31.59 C 143.18 30.19 141.47 29.58 140.68 28.85 M 139.19 34.19 C 139.78 34.81 139.78 34.81 139.19 34.19 M 131.17 41.40 C 131.16 41.83 131.14 42.69 131.13 43.11 L 131.84 43.15 C 131.85 42.72 131.88 41.86 131.89 41.44 L 131.17 41.40 M 131.97 50.91 C 131.79 48.54 131.61 46.17 131.36 43.81 C 128.90 45.18 129.66 49.67 131.97 50.91 M 134.73 46.54 C 135.20 48.46 134.38 50.90 135.93 52.42 C 135.95 53.06 135.99 54.33 136.02 54.97 L 136.81 55.06 C 137.04 53.79 137.30 52.52 137.66 51.27 C 137.19 50.88 136.26 50.09 135.80 49.69 C 136.27 48.27 136.77 46.85 137.30 45.44 C 136.48 45.91 135.63 46.28 134.73 46.54 C 134.26 46.02 134.26 46.02 134.73 46.54 M 131.44 51.05 C 131.60 52.18 131.92 54.43 132.09 55.56 C 132.98 55.40 133.87 55.25 134.77 55.11 C 134.03 53.48 133.05 51.96 131.44 51.05 M 136.88 55.44 C 137.86 56.72 139.13 57.89 139.21 59.62 C 139.96 59.82 141.47 60.22 142.22 60.42 C 142.13 59.51 142.03 58.60 141.94 57.69 C 141.46 58.13 140.49 59.02 140.01 59.46 C 139.99 57.98 139.96 56.51 139.92 55.04 C 139.16 55.14 137.64 55.34 136.88 55.44 M 134.18 56.95 C 133.91 57.46 133.36 58.49 133.09 59.01 C 134.36 59.22 135.38 59.87 136.15 60.96 C 137.17 63.00 138.89 65.28 141.52 64.78 C 143.28 64.69 142.84 67.22 143.40 68.28 L 144.02 68.30 C 144.27 66.10 144.31 62.61 141.08 63.35 C 141.00 62.70 140.83 61.39 140.75 60.74 C 140.56 61.42 140.18 62.78 139.99 63.46 C 139.15 62.76 138.31 62.06 137.46 61.37 L 137.57 60.68 C 136.05 59.77 136.05 57.22 134.18 56.95 M 143.91 69.18 C 142.40 72.32 147.20 69.15 143.91 69.18 Z" />
<path fill="#040404" opacity="1.00" d=" M 3.16 27.03 C 7.09 25.67 11.25 24.57 15.43 25.12 C 17.50 28.29 21.78 29.05 23.62 32.41 C 24.75 34.48 25.93 36.52 26.93 38.65 C 26.49 39.10 25.59 40.01 25.15 40.46 C 24.56 38.90 24.64 36.72 22.84 36.00 C 22.63 35.39 22.21 34.17 22.00 33.56 C 21.22 32.27 20.42 31.00 19.63 29.71 C 19.07 30.91 18.49 32.11 17.85 33.26 C 17.73 32.37 17.50 30.58 17.38 29.68 C 16.82 29.71 15.70 29.76 15.14 29.78 C 14.39 30.40 13.65 31.00 12.90 31.61 C 13.38 31.54 14.33 31.40 14.80 31.33 C 15.15 32.65 16.04 33.36 17.48 33.47 C 18.20 35.98 18.88 38.51 19.89 40.92 C 21.01 45.22 22.32 49.46 23.38 53.78 C 23.54 54.11 23.85 54.75 24.01 55.07 C 24.42 57.67 24.93 60.24 25.79 62.73 C 25.74 64.05 25.51 65.50 26.58 66.52 C 26.78 64.65 26.84 62.77 27.02 60.90 C 27.34 60.65 27.97 60.16 28.29 59.91 L 28.61 63.00 L 29.77 60.32 C 29.98 61.72 30.38 64.53 30.59 65.93 C 29.78 66.04 28.16 66.25 27.35 66.36 C 26.83 67.94 25.39 70.01 28.24 70.24 C 28.19 69.34 28.08 67.55 28.02 66.66 C 29.39 66.24 30.83 66.24 32.25 66.21 C 30.53 60.66 29.81 54.80 27.30 49.51 C 25.86 46.70 25.73 43.51 25.15 40.46 C 26.81 39.99 28.34 41.22 30.02 41.06 C 35.77 41.24 41.06 38.17 46.79 37.93 C 46.22 36.51 46.00 35.01 45.94 33.50 C 48.22 32.03 49.38 29.53 50.99 27.44 C 53.35 28.22 55.84 28.02 58.27 27.70 L 58.72 27.67 C 60.34 27.76 61.94 27.96 63.55 28.15 C 65.81 30.33 70.12 31.54 69.97 35.28 C 67.78 34.24 66.71 31.96 64.82 30.56 C 65.38 32.53 66.30 34.36 67.20 36.18 C 67.83 36.04 69.10 35.76 69.73 35.62 L 69.97 35.28 C 70.77 36.76 70.63 38.79 72.44 39.68 C 72.50 40.35 72.62 41.69 72.68 42.36 C 72.51 42.51 72.19 42.79 72.03 42.94 L 71.45 42.70 C 71.07 41.54 70.81 40.36 70.67 39.14 C 69.77 39.41 69.47 40.50 69.83 41.31 C 70.26 43.62 70.70 45.94 71.52 48.15 C 72.77 46.81 71.98 44.61 72.03 42.94 C 72.19 42.79 72.51 42.51 72.68 42.36 L 73.46 42.36 C 76.78 51.84 72.00 61.37 70.74 70.76 C 70.33 70.89 69.51 71.15 69.11 71.28 C 68.60 73.05 68.19 74.85 67.82 76.65 C 65.91 77.08 64.85 78.58 64.58 80.44 C 63.60 81.15 62.58 81.86 62.01 82.96 C 60.32 85.88 57.13 87.57 55.62 90.62 C 52.25 92.74 50.54 96.76 48.26 99.94 C 49.14 99.96 50.91 100.00 51.79 100.01 C 54.01 101.92 53.91 104.93 55.11 107.39 C 53.06 109.74 50.85 112.13 47.77 113.05 C 48.16 111.81 48.76 109.57 47.17 108.95 C 46.66 110.25 46.54 112.09 47.77 113.05 C 45.61 113.29 43.45 113.54 41.29 113.77 C 40.07 112.72 39.01 110.94 37.15 111.70 C 36.91 111.41 36.45 110.84 36.21 110.55 L 36.98 111.25 C 36.97 110.32 36.94 108.48 36.92 107.56 C 36.58 106.91 35.89 105.63 35.55 104.98 C 35.19 105.47 34.46 106.45 34.10 106.94 C 34.02 105.98 33.87 104.07 33.79 103.12 C 32.48 103.23 30.50 103.12 31.12 105.07 C 31.51 104.96 32.29 104.76 32.68 104.66 C 32.62 106.63 34.26 107.35 35.74 108.13 C 35.86 108.73 36.10 109.94 36.21 110.55 C 33.17 110.34 33.59 106.49 30.98 105.88 C 29.68 105.34 30.19 103.57 29.81 102.50 C 28.31 100.70 26.83 98.89 25.41 97.02 C 25.61 96.45 26.02 95.31 26.23 94.74 C 22.72 93.65 23.97 89.16 23.06 86.34 C 24.07 88.35 24.94 90.43 25.31 92.66 C 28.46 94.73 28.57 98.79 30.02 101.95 C 30.66 101.87 31.94 101.70 32.59 101.62 C 30.71 100.03 29.84 97.80 29.15 95.51 C 29.10 94.94 28.99 93.82 28.94 93.25 C 28.03 92.57 27.12 91.88 26.22 91.19 C 26.44 90.38 26.88 88.76 27.10 87.94 C 26.06 87.51 25.02 87.07 23.99 86.62 C 24.49 85.55 25.00 84.49 25.51 83.42 C 24.74 83.28 23.22 82.99 22.45 82.84 C 22.61 83.72 22.91 85.47 23.06 86.34 C 21.21 82.03 20.57 77.17 19.32 72.62 C 17.29 68.26 17.28 63.38 16.77 58.68 C 16.69 58.16 16.52 57.10 16.43 56.58 C 16.80 56.91 17.53 57.58 17.90 57.91 C 18.45 62.57 19.88 67.05 20.97 71.59 C 21.65 73.66 21.43 75.82 21.26 77.94 C 22.15 77.47 23.04 77.01 23.93 76.55 C 21.94 73.06 22.01 68.94 20.75 65.20 C 19.45 60.81 18.72 56.26 18.76 51.68 C 18.40 51.54 17.67 51.26 17.31 51.12 C 18.39 49.15 17.36 47.05 17.04 45.06 C 16.37 42.87 16.40 40.05 13.99 38.93 C 14.24 38.29 14.75 37.01 15.01 36.37 C 14.01 35.49 12.92 34.75 11.82 34.02 C 12.26 36.35 13.60 38.49 13.19 40.94 C 11.26 39.79 11.68 37.43 11.05 35.63 C 9.04 35.88 7.01 36.18 4.97 36.04 C 3.68 35.05 2.53 33.89 1.32 32.79 C 1.93 30.87 2.55 28.95 3.16 27.03 M 55.23 29.62 C 55.85 30.24 56.48 30.85 57.10 31.47 C 58.78 31.01 61.03 32.61 61.08 29.79 C 60.40 29.34 59.06 28.45 58.38 28.01 C 58.09 28.45 57.51 29.34 57.22 29.78 C 56.72 29.74 55.73 29.66 55.23 29.62 M 63.91 32.56 C 64.62 31.40 64.60 30.24 63.83 29.05 C 61.52 28.03 62.04 32.81 63.91 32.56 M 55.02 32.41 C 55.24 32.56 55.69 32.87 55.91 33.02 C 55.69 32.87 55.24 32.56 55.02 32.41 C 54.17 31.73 54.17 31.73 55.02 32.41 M 55.91 33.02 C 56.45 34.08 57.81 35.75 59.16 35.38 L 59.45 34.89 C 59.34 33.26 57.22 32.84 55.91 33.02 M 61.96 33.73 C 62.13 35.10 61.71 37.00 63.42 37.54 C 66.07 38.48 65.65 41.55 66.01 43.81 C 65.99 43.98 65.95 44.32 65.93 44.50 L 66.34 44.12 L 67.17 44.68 C 66.91 46.27 66.92 47.92 67.80 49.33 C 67.94 47.77 67.96 46.22 67.85 44.66 C 68.04 44.36 68.42 43.75 68.62 43.45 C 65.98 41.47 66.35 37.78 64.16 35.56 C 63.43 34.94 62.70 34.33 61.96 33.73 M 54.39 40.46 C 54.57 40.43 54.93 40.36 55.10 40.32 C 55.74 39.04 57.48 36.22 55.61 35.41 C 53.64 36.23 55.01 38.86 54.39 40.46 M 59.16 35.38 C 58.53 39.41 60.10 43.34 61.83 46.89 C 60.03 50.97 62.28 55.86 59.21 59.51 C 59.31 62.67 57.04 65.09 56.25 67.98 C 56.48 72.12 53.33 75.13 51.38 78.44 C 50.07 80.76 49.97 84.17 46.98 85.09 C 47.38 86.00 47.78 86.91 48.17 87.83 C 47.66 87.63 46.64 87.24 46.13 87.05 C 46.22 89.54 45.13 91.74 43.27 93.35 C 42.98 95.17 42.19 96.82 41.28 98.40 C 43.13 98.45 44.23 97.28 45.08 95.84 C 44.95 95.51 44.69 94.86 44.56 94.53 C 46.27 93.19 47.14 91.17 48.36 89.43 C 49.70 88.39 51.17 87.53 52.61 86.64 C 53.65 84.68 55.68 83.26 55.97 80.96 C 56.28 78.79 58.05 77.28 58.71 75.25 C 58.99 73.68 58.49 71.44 60.53 70.93 C 60.61 71.01 60.79 71.17 60.87 71.25 C 62.15 74.03 59.76 76.11 59.76 78.78 L 61.00 78.84 C 61.00 77.97 61.00 76.24 61.00 75.37 L 62.20 75.44 C 61.95 77.44 61.30 79.36 60.91 81.33 C 64.52 78.93 62.71 74.16 61.14 71.10 C 61.09 71.01 61.01 70.81 60.97 70.72 L 61.36 70.55 C 62.89 64.69 64.83 58.93 65.69 52.91 C 64.62 50.18 64.79 47.18 65.93 44.50 L 64.68 44.42 C 64.74 43.73 64.86 42.35 64.92 41.65 C 63.11 40.68 61.49 39.47 61.82 37.17 C 61.18 36.00 60.29 35.41 59.16 35.38 M 56.89 39.84 C 57.25 41.66 56.49 43.35 56.06 45.06 C 55.11 45.68 54.10 46.30 53.67 47.42 C 52.60 49.60 50.19 51.15 50.35 53.83 C 49.30 54.91 48.29 56.05 47.57 57.39 C 44.68 58.14 45.11 63.30 41.38 62.41 C 43.17 65.59 37.69 64.87 37.68 67.69 L 36.42 67.07 C 35.95 69.25 33.49 70.23 33.15 72.43 C 32.69 74.32 32.34 76.24 32.22 78.18 C 32.69 76.94 33.01 75.66 33.18 74.34 C 33.62 74.75 34.49 75.58 34.93 75.99 C 34.59 75.02 34.26 74.05 33.94 73.08 C 35.17 71.54 37.21 70.14 37.09 67.97 C 38.51 67.81 39.72 67.04 40.72 65.66 L 40.62 68.44 C 41.00 67.57 41.39 66.70 41.78 65.84 L 42.86 67.83 C 42.92 67.12 43.06 65.68 43.12 64.97 C 43.55 64.98 44.40 64.99 44.83 65.00 C 44.35 62.75 46.47 61.33 46.63 59.25 C 48.30 58.37 49.47 56.89 50.80 55.61 C 50.99 54.19 51.28 52.80 51.64 51.41 C 52.27 51.41 53.52 51.40 54.15 51.39 L 54.41 51.40 C 53.52 47.86 56.86 44.92 58.47 41.98 C 58.36 41.44 58.13 40.35 58.01 39.81 C 57.73 39.82 57.17 39.83 56.89 39.84 M 51.74 44.49 C 51.18 44.45 50.07 44.37 49.52 44.34 C 48.13 46.90 48.14 49.90 46.83 52.48 C 45.42 53.42 44.02 53.52 42.63 52.77 C 43.10 54.14 43.45 55.54 43.66 56.98 C 42.19 57.49 41.60 58.47 41.88 59.92 C 40.41 59.98 39.35 60.61 38.69 61.82 C 38.14 61.51 37.05 60.89 36.50 60.58 C 36.70 62.23 35.38 63.37 34.62 64.66 C 32.90 65.96 32.37 68.25 30.66 69.58 C 30.17 71.96 27.61 72.73 26.65 74.83 C 26.61 76.20 28.91 79.60 29.43 76.71 L 27.33 74.96 C 28.79 73.88 30.70 73.05 31.04 71.05 C 31.39 69.36 34.52 69.60 33.06 67.07 L 34.03 67.68 C 34.86 66.47 35.81 65.31 36.23 63.86 C 37.42 63.50 38.64 63.15 39.91 63.24 C 39.97 62.66 40.08 61.50 40.14 60.92 C 40.57 60.99 41.41 61.13 41.84 61.21 C 42.66 59.95 43.15 58.53 43.67 57.13 L 44.63 57.40 C 44.92 55.45 45.84 53.49 47.82 52.79 C 48.16 51.23 48.42 49.64 49.00 48.14 C 50.56 45.24 54.37 44.19 54.39 40.46 C 53.45 41.77 52.56 43.11 51.74 44.49 M 57.86 47.08 L 56.21 46.26 C 57.12 47.86 57.52 49.56 57.40 51.39 C 56.59 51.39 54.96 51.39 54.15 51.39 C 54.06 54.56 51.50 56.85 50.78 59.88 C 50.34 59.92 49.46 60.00 49.02 60.05 C 49.01 60.45 48.99 61.27 48.98 61.67 C 45.97 62.72 46.94 66.79 44.66 68.64 C 43.24 69.14 42.82 70.43 42.60 71.80 L 41.46 71.20 C 41.62 73.31 40.17 75.06 39.65 77.02 C 38.09 78.86 34.76 79.59 35.23 82.64 C 35.95 81.54 37.06 80.94 38.25 80.48 C 40.12 78.21 41.39 75.58 41.83 72.67 C 42.35 72.45 43.38 72.02 43.90 71.80 C 43.98 71.15 44.14 69.86 44.22 69.21 C 45.47 69.32 46.54 68.94 47.44 68.06 C 45.76 64.88 50.14 62.82 51.79 60.62 C 51.70 58.33 52.72 55.68 55.34 55.49 L 54.81 53.96 C 56.21 53.04 57.58 52.10 58.97 51.20 C 58.70 48.41 59.21 45.63 58.99 42.84 C 58.05 44.05 57.70 45.56 57.86 47.08 M 69.28 46.69 L 68.94 47.49 C 69.47 50.18 71.61 46.17 69.28 46.69 M 31.00 49.92 C 31.13 54.24 30.52 59.02 33.07 62.80 C 35.61 61.11 38.37 58.65 38.17 55.30 C 40.00 53.49 42.57 51.87 42.16 48.90 C 38.40 49.16 34.82 50.59 31.00 49.92 M 70.18 49.38 C 70.91 51.94 71.55 54.74 70.27 57.24 C 69.37 59.10 70.26 61.02 72.08 61.85 C 71.64 60.05 71.12 58.28 70.81 56.45 C 71.19 56.50 71.95 56.59 72.33 56.63 C 71.89 54.68 71.42 52.28 73.82 51.53 C 71.79 52.08 70.90 51.30 71.13 49.19 C 70.89 49.24 70.42 49.33 70.18 49.38 M 56.67 59.27 L 55.08 57.98 C 54.69 59.77 54.45 61.61 53.68 63.29 C 49.52 63.83 49.52 68.55 47.15 71.08 C 45.94 72.29 45.96 74.01 45.67 75.59 L 44.43 74.25 C 44.45 76.66 42.12 78.31 42.97 80.94 L 40.60 78.15 C 44.20 81.31 40.21 81.41 38.93 82.92 C 38.19 84.01 37.48 85.13 36.40 85.93 L 38.08 87.12 C 36.93 87.21 35.78 87.27 34.63 87.30 C 34.87 87.92 35.35 89.15 35.60 89.77 C 36.06 89.76 36.99 89.73 37.45 89.72 C 37.96 87.89 38.68 86.14 39.32 84.35 C 41.60 83.34 43.08 81.01 45.70 80.81 L 43.20 80.79 L 43.41 78.15 C 47.64 77.96 45.78 72.00 49.67 71.48 C 51.40 70.93 50.12 68.72 50.26 67.53 C 51.52 67.23 52.85 66.96 54.08 67.53 C 54.17 66.77 54.35 65.23 54.44 64.47 C 54.78 65.00 55.46 66.05 55.80 66.58 C 56.35 64.26 56.74 61.90 57.02 59.53 C 58.71 57.33 60.38 54.56 58.86 51.72 C 57.78 54.12 57.17 56.70 56.67 59.27 M 69.20 53.76 C 69.19 54.18 69.16 55.02 69.15 55.44 L 69.89 55.45 C 69.90 55.03 69.90 54.19 69.91 53.77 L 69.20 53.76 M 63.13 67.73 C 63.93 69.67 61.66 71.88 63.54 73.33 C 64.20 71.21 64.62 69.04 65.03 66.86 C 66.02 68.41 66.35 70.38 67.79 71.63 C 67.28 70.11 66.81 68.56 66.85 66.94 C 66.47 66.67 65.70 66.13 65.32 65.86 C 67.04 63.30 68.48 60.44 67.07 57.34 C 64.90 60.51 66.35 65.31 63.13 67.73 M 70.80 65.83 C 71.31 64.28 69.76 62.84 69.57 61.29 C 68.19 61.96 68.65 66.53 70.80 65.83 M 66.85 66.94 C 67.43 67.87 68.13 68.66 68.93 69.31 C 71.12 68.46 68.51 65.84 67.38 65.13 C 67.25 65.58 66.98 66.49 66.85 66.94 M 52.81 68.31 C 52.11 70.04 52.40 72.59 50.34 73.39 C 49.29 74.55 48.91 76.10 48.83 77.63 C 48.43 77.52 47.64 77.30 47.24 77.19 C 46.79 78.88 46.30 80.56 45.79 82.24 C 42.51 81.74 44.27 86.88 41.30 87.05 C 41.53 87.93 41.76 88.81 41.99 89.70 C 41.53 89.65 40.59 89.57 40.13 89.52 C 40.83 92.70 38.52 95.22 38.33 98.31 C 38.81 97.51 39.76 95.90 40.24 95.09 C 41.51 93.93 41.67 92.41 41.16 90.79 C 41.58 91.02 42.42 91.48 42.84 91.71 C 41.46 88.60 47.76 88.19 43.41 85.66 C 44.34 85.68 45.26 85.70 46.19 85.71 C 46.39 83.37 47.37 81.14 47.14 78.74 C 47.60 79.75 48.53 81.76 48.99 82.77 C 48.98 81.98 48.95 80.38 48.94 79.59 L 47.86 77.93 C 48.39 77.97 49.44 78.06 49.97 78.10 C 50.00 77.14 50.07 75.22 50.10 74.26 L 51.62 76.02 C 52.25 74.05 52.89 72.08 53.43 70.07 L 54.74 70.83 C 54.88 70.12 55.16 68.69 55.30 67.98 C 54.47 68.08 53.64 68.19 52.81 68.31 M 65.19 71.33 C 65.08 73.35 64.56 75.31 63.96 77.24 C 64.30 76.80 64.98 75.93 65.32 75.50 C 65.74 75.65 66.59 75.97 67.01 76.12 C 66.21 74.61 65.97 72.93 65.93 71.24 L 65.19 71.33 M 58.52 77.67 C 57.57 79.58 56.85 81.60 56.88 83.76 C 54.28 83.83 56.09 86.13 56.50 87.26 C 56.79 85.20 58.65 84.24 60.00 82.94 C 60.07 81.08 59.74 79.13 58.52 77.67 M 21.82 79.35 C 21.02 80.74 23.53 82.12 24.52 81.01 C 25.22 79.56 22.85 78.71 21.82 79.35 M 28.27 79.21 C 28.93 80.99 29.11 82.88 29.20 84.77 C 29.75 84.99 30.85 85.42 31.39 85.64 C 31.41 86.55 31.43 88.38 31.44 89.29 L 30.84 88.50 C 30.92 89.20 31.07 90.62 31.15 91.33 C 31.75 90.20 32.33 89.06 33.00 87.98 C 33.05 88.88 33.16 90.69 33.21 91.59 L 31.83 92.35 C 32.50 94.41 33.23 96.47 33.23 98.67 C 34.15 97.63 34.42 96.38 34.02 94.92 C 34.23 95.09 34.65 95.42 34.86 95.59 C 34.84 97.60 35.55 99.48 36.27 101.32 C 35.96 101.68 35.33 102.38 35.01 102.74 L 36.69 103.08 L 37.50 106.27 L 39.09 100.36 L 37.15 101.72 C 37.11 99.46 34.73 96.95 36.20 94.86 C 34.12 92.93 33.68 89.95 33.61 87.26 C 32.96 86.57 32.30 85.88 31.65 85.20 C 31.16 83.16 28.12 81.43 30.84 79.46 C 30.19 79.40 28.91 79.27 28.27 79.21 M 33.36 81.15 C 32.69 82.40 32.96 83.27 34.16 83.74 C 34.86 82.45 34.59 81.59 33.36 81.15 M 54.22 85.03 C 54.19 86.92 52.88 88.25 51.70 89.57 C 51.33 89.37 50.60 88.98 50.23 88.78 C 49.44 90.47 48.83 92.25 48.89 94.15 L 47.99 94.02 L 48.00 92.40 L 47.23 92.47 C 46.77 95.01 45.85 97.45 45.81 100.06 C 45.54 99.55 45.01 98.54 44.74 98.04 L 43.98 97.98 C 44.00 98.55 44.03 99.69 44.05 100.27 L 42.40 99.24 C 41.72 101.27 40.97 103.33 40.98 105.51 C 41.30 106.13 41.96 107.37 42.28 107.99 L 43.05 108.00 C 43.01 107.37 42.91 106.09 42.87 105.45 C 42.61 104.78 42.09 103.43 41.84 102.76 C 43.38 101.98 44.84 100.69 46.70 101.21 C 47.26 102.37 47.81 103.54 48.35 104.71 C 48.77 104.27 49.59 103.39 50.01 102.95 C 50.72 105.97 48.28 108.32 49.00 111.34 L 49.99 111.25 C 50.00 110.66 50.01 109.49 50.01 108.90 C 53.62 108.75 51.34 105.59 50.85 103.54 C 51.42 103.51 52.56 103.46 53.13 103.43 C 52.02 102.97 51.12 102.26 50.43 101.29 C 49.71 101.62 48.98 101.95 48.26 102.29 C 46.47 100.57 46.82 98.26 47.04 96.03 C 50.29 97.50 50.15 92.87 50.15 90.93 C 50.54 91.54 51.32 92.74 51.71 93.34 C 51.74 91.20 53.64 90.15 54.76 88.60 C 54.98 87.38 55.17 86.16 55.33 84.93 L 54.22 85.03 M 45.51 113.17 C 45.01 110.13 47.51 107.64 46.63 104.76 C 46.30 105.56 45.64 107.15 45.31 107.94 C 45.09 106.97 44.66 105.02 44.45 104.04 C 43.40 107.15 45.24 110.09 45.51 113.17 M 40.15 110.69 C 40.42 111.84 40.99 112.53 41.85 112.77 C 42.69 111.00 41.18 109.22 40.65 107.59 C 39.43 107.75 39.85 109.86 40.15 110.69 M 38.11 108.20 C 36.59 111.40 41.23 108.50 38.11 108.20 M 43.22 110.16 C 43.22 110.83 43.24 112.17 43.25 112.84 C 44.41 112.41 44.59 111.52 43.79 110.15 L 43.22 110.16 Z" />
<path fill="#040404" opacity="1.00" d=" M 20.76 39.73 C 19.58 37.33 17.72 34.20 20.06 31.87 C 21.83 33.40 21.15 35.60 21.20 37.54 C 21.60 37.64 22.40 37.85 22.80 37.95 C 24.11 39.23 24.20 40.98 23.76 42.68 L 25.05 42.27 C 25.18 43.67 25.28 45.08 25.38 46.48 C 26.62 49.38 27.87 52.41 28.16 55.58 C 27.39 55.67 25.84 55.85 25.07 55.95 C 25.17 55.11 25.39 53.43 25.49 52.59 L 24.03 52.90 C 24.25 51.95 24.70 50.05 24.93 49.10 L 22.90 51.44 C 23.09 49.39 23.31 47.35 23.54 45.30 L 22.29 45.96 C 21.70 43.90 21.17 41.83 20.76 39.73 Z" />
<path fill="#040404" opacity="1.00" d=" M 151.13 37.22 C 151.80 37.89 151.80 37.89 151.13 37.22 Z" />
<path fill="#040404" opacity="1.00" d=" M 13.19 40.94 L 13.25 41.00 C 13.57 41.29 14.21 41.86 14.53 42.14 C 14.43 44.77 14.75 47.57 16.30 49.78 C 16.29 50.22 16.27 51.11 16.26 51.55 C 16.97 53.18 16.67 54.89 16.43 56.58 C 14.79 55.80 16.33 53.26 15.73 51.85 C 14.70 48.89 14.21 45.69 12.59 42.96 C 12.74 42.46 13.04 41.45 13.19 40.94 Z" />
<path fill="#040404" opacity="1.00" d=" M 143.34 55.00 C 143.90 54.98 145.04 54.95 145.60 54.93 C 146.38 56.16 147.89 55.90 149.13 56.12 C 149.49 57.57 149.14 58.66 148.08 59.39 C 146.18 60.02 145.84 57.91 144.99 56.77 L 144.70 56.44 L 144.50 56.96 L 143.34 55.00 Z" />
<path fill="#040404" opacity="1.00" d=" M 25.72 56.62 C 28.18 55.23 27.20 59.61 27.02 60.90 C 25.90 59.82 25.95 58.05 25.72 56.62 Z" />
<path fill="#040404" opacity="1.00" d=" M 149.01 61.58 C 151.44 60.86 149.75 64.37 148.57 62.42 L 149.01 61.58 Z" />
<path fill="#040404" opacity="1.00" d=" M 60.53 70.93 C 60.64 70.88 60.86 70.77 60.97 70.72 L 60.86 70.94 L 60.53 70.93 Z" />
<path fill="#040404" opacity="1.00" d=" M 134.37 87.71 C 134.07 83.31 136.17 78.72 138.51 74.95 C 139.53 75.17 141.58 75.59 142.60 75.81 C 142.50 77.82 141.36 79.23 139.26 79.16 C 139.03 78.54 138.57 77.29 138.34 76.66 C 137.88 79.09 137.46 81.53 136.90 83.95 C 135.67 84.35 134.93 85.19 134.68 86.46 C 135.77 86.06 136.86 85.65 137.94 85.23 C 137.78 83.22 137.90 81.21 139.26 79.59 C 139.85 79.76 141.03 80.09 141.62 80.26 C 141.34 81.11 140.79 82.82 140.51 83.68 C 140.22 83.87 139.63 84.25 139.34 84.43 C 139.66 86.18 140.25 87.90 139.63 89.70 C 139.33 88.93 138.72 87.40 138.41 86.63 C 138.43 88.09 135.80 91.22 137.71 91.87 C 137.86 91.34 138.15 90.28 138.30 89.76 C 138.63 90.30 139.29 91.39 139.61 91.94 C 141.49 88.48 142.13 84.57 142.42 80.70 L 144.09 82.45 C 144.41 87.19 142.35 91.59 141.07 96.04 C 140.27 98.77 140.23 101.74 138.76 104.26 C 139.00 106.48 138.47 108.61 137.76 110.69 C 137.36 111.03 136.56 111.70 136.16 112.04 C 136.25 114.18 136.38 117.30 133.79 117.99 C 134.60 114.43 135.31 110.85 135.90 107.24 C 136.65 106.84 137.41 106.44 138.16 106.04 L 136.10 105.63 C 136.67 104.44 137.24 103.26 137.85 102.10 C 137.99 98.68 138.98 95.40 139.73 92.10 C 138.43 92.94 137.08 93.70 135.69 94.37 C 136.34 95.00 137.08 95.53 137.89 95.97 C 136.75 99.22 137.09 103.15 135.01 105.96 C 134.72 102.88 135.62 99.87 136.39 96.92 C 135.14 97.76 133.89 98.59 132.64 99.42 C 133.19 99.42 134.29 99.43 134.84 99.43 C 134.42 101.60 134.05 103.77 133.65 105.94 C 133.42 105.16 132.96 103.59 132.73 102.81 L 131.83 102.85 C 132.28 104.85 132.78 106.83 133.10 108.85 C 133.59 107.79 134.23 106.82 135.01 105.96 C 134.53 109.40 134.10 112.97 132.58 116.13 C 131.86 115.66 131.33 114.99 131.01 114.10 C 131.04 113.09 131.10 111.07 131.13 110.06 C 131.70 111.11 132.28 112.15 132.87 113.20 C 132.42 110.91 132.04 108.61 131.83 106.29 L 131.16 106.18 C 131.09 108.63 130.07 111.10 130.67 113.55 L 131.01 114.10 C 130.82 114.65 130.43 115.75 130.23 116.30 L 129.62 115.68 L 128.87 114.79 C 128.89 115.52 128.92 117.00 128.93 117.73 C 128.32 117.79 127.09 117.89 126.48 117.94 C 124.77 116.11 121.90 116.81 120.34 114.82 C 120.91 113.14 121.60 111.49 122.25 109.84 C 122.62 108.95 122.97 108.06 123.29 107.16 C 123.51 106.70 123.94 105.80 124.15 105.35 C 126.24 104.47 127.36 102.13 125.61 100.26 C 129.78 99.52 128.86 94.52 131.89 92.54 C 131.95 91.42 132.00 90.30 132.04 89.19 C 132.62 88.82 133.78 88.08 134.37 87.71 C 133.26 89.08 132.63 90.85 133.10 92.60 C 133.77 92.01 134.41 91.38 135.02 90.72 C 135.07 89.66 134.86 88.66 134.37 87.71 M 130.05 96.13 C 130.28 97.45 129.95 98.55 129.08 99.42 C 129.05 100.17 129.00 101.67 128.97 102.42 C 128.46 101.84 127.44 100.68 126.93 100.10 C 127.09 101.21 127.40 103.43 127.56 104.54 C 126.39 104.95 125.76 105.79 125.67 107.07 C 125.30 107.11 124.56 107.19 124.19 107.23 C 123.47 108.73 125.21 109.76 125.80 110.98 C 125.87 110.33 126.01 109.04 126.08 108.39 C 128.23 107.08 127.75 104.00 129.86 102.56 C 129.88 100.38 130.48 98.29 131.18 96.25 C 132.48 96.04 133.24 95.04 133.97 94.05 C 132.14 93.54 131.00 94.77 130.05 96.13 M 129.17 108.58 L 129.17 109.24 L 129.83 109.23 L 129.82 108.58 L 129.17 108.58 M 122.44 110.05 C 122.51 110.26 122.66 110.69 122.74 110.90 C 123.06 111.16 123.71 111.68 124.03 111.94 C 123.97 111.53 123.84 110.71 123.77 110.30 L 123.00 110.27 L 122.44 110.05 M 124.03 111.94 C 123.63 113.25 123.74 114.50 124.35 115.70 C 125.76 115.50 125.51 112.01 124.03 111.94 M 128.11 112.35 C 126.61 115.49 131.27 112.62 128.11 112.35 M 122.01 113.14 C 120.41 116.13 125.23 113.62 122.01 113.14 M 127.40 117.68 L 127.91 117.67 C 128.21 116.11 127.23 114.54 126.63 113.16 C 125.02 113.77 126.64 116.66 127.40 117.68 Z" />
<path fill="#040404" opacity="1.00" d=" M 58.09 81.42 C 61.31 81.58 56.61 84.48 58.09 81.42 Z" />
<path fill="#040404" opacity="1.00" d=" M 33.14 93.11 C 33.36 93.56 33.80 94.47 34.02 94.92 C 33.72 94.70 33.12 94.27 32.82 94.05 L 33.14 93.11 Z" />
<path fill="#040404" opacity="1.00" d=" M 128.93 117.73 C 130.53 117.55 132.32 117.00 133.79 117.99 C 132.90 119.18 129.65 119.20 128.93 117.73 Z" />
</g>
<g id="#ffffffff">
<path fill="#ffffff" opacity="1.00" d=" M 160.42 21.51 C 160.50 21.46 160.66 21.37 160.73 21.32 C 160.66 21.37 160.50 21.46 160.42 21.51 Z" />
<path fill="#ffffff" opacity="1.00" d=" M 137.10 25.17 C 138.87 26.70 139.72 23.89 141.00 23.16 C 142.11 24.91 142.41 28.97 139.27 27.20 C 138.86 30.18 138.10 33.11 137.52 36.06 C 137.38 34.67 137.23 33.28 137.08 31.89 C 137.34 31.46 137.88 30.59 138.14 30.16 C 138.28 29.13 138.55 27.06 138.68 26.03 L 136.58 26.85 C 136.71 26.43 136.97 25.59 137.10 25.17 Z" />
<path fill="#ffffff" opacity="1.00" d=" M 156.12 26.59 C 159.23 26.10 160.44 23.22 162.06 20.93 C 163.64 22.77 159.03 27.44 162.64 27.60 C 161.79 29.35 162.56 31.00 163.39 32.55 C 163.35 32.90 163.26 33.59 163.21 33.94 C 162.30 33.81 160.47 33.55 159.55 33.42 C 159.47 34.16 159.31 35.65 159.22 36.40 C 158.70 36.40 157.66 36.39 157.15 36.38 C 157.46 37.95 156.94 41.68 159.80 40.57 C 159.78 40.70 159.75 40.98 159.74 41.12 C 159.04 41.33 157.65 41.75 156.95 41.97 L 156.20 42.49 C 156.30 43.08 156.50 44.26 156.60 44.85 C 156.33 46.05 156.08 47.25 155.83 48.45 L 155.02 48.40 L 154.99 44.98 C 153.83 46.57 153.68 48.58 153.26 50.45 C 153.62 50.51 154.34 50.62 154.70 50.68 C 153.86 52.02 153.00 53.37 151.87 54.50 C 152.02 55.47 152.18 56.44 152.34 57.41 C 152.08 57.52 151.57 57.73 151.31 57.84 C 150.86 55.30 150.62 52.53 148.54 50.71 C 148.80 50.09 149.31 48.86 149.57 48.25 C 150.24 50.02 149.67 52.74 151.73 53.71 C 152.11 50.99 153.35 48.27 152.59 45.49 C 153.15 45.42 154.27 45.28 154.83 45.22 C 154.71 43.69 154.59 42.14 154.93 40.63 C 155.40 40.67 156.36 40.76 156.83 40.81 C 157.17 39.36 156.79 37.89 156.65 36.44 C 157.19 36.21 158.27 35.76 158.81 35.53 C 158.56 33.92 158.33 32.31 158.13 30.70 C 158.43 30.91 159.05 31.34 159.36 31.55 L 159.20 33.25 C 160.43 33.21 161.67 33.18 162.90 33.17 C 162.34 32.41 161.21 30.90 160.65 30.14 C 160.63 29.41 160.61 27.96 160.59 27.24 C 159.07 27.04 157.57 27.10 156.49 28.38 C 156.40 27.93 156.21 27.03 156.12 26.59 Z" />
<path fill="#ffffff" opacity="1.00" d=" M 58.27 27.70 C 58.38 27.69 58.61 27.68 58.72 27.67 L 58.27 27.70 Z" />
<path fill="#ffffff" opacity="1.00" d=" M 12.90 31.61 C 13.65 31.00 14.39 30.40 15.14 29.78 C 15.70 29.76 16.82 29.71 17.38 29.68 C 17.50 30.58 17.73 32.37 17.85 33.26 C 18.49 32.11 19.07 30.91 19.63 29.71 C 20.42 31.00 21.22 32.27 22.00 33.56 C 22.21 34.17 22.63 35.39 22.84 36.00 C 24.64 36.72 24.56 38.90 25.15 40.46 C 25.73 43.51 25.86 46.70 27.30 49.51 C 29.81 54.80 30.53 60.66 32.25 66.21 C 30.83 66.24 29.39 66.24 28.02 66.66 C 28.08 67.55 28.19 69.34 28.24 70.24 C 25.39 70.01 26.83 67.94 27.35 66.36 C 28.16 66.25 29.78 66.04 30.59 65.93 C 30.38 64.53 29.98 61.72 29.77 60.32 L 28.61 63.00 L 28.29 59.91 C 27.97 60.16 27.34 60.65 27.02 60.90 C 27.20 59.61 28.18 55.23 25.72 56.62 C 25.95 58.05 25.90 59.82 27.02 60.90 C 26.84 62.77 26.78 64.65 26.58 66.52 C 25.51 65.50 25.74 64.05 25.79 62.73 C 24.93 60.24 24.42 57.67 24.01 55.07 C 23.85 54.75 23.54 54.11 23.38 53.78 C 22.32 49.46 21.01 45.22 19.89 40.92 C 18.88 38.51 18.20 35.98 17.48 33.47 C 16.04 33.36 15.15 32.65 14.80 31.33 C 14.33 31.40 13.38 31.54 12.90 31.61 M 20.76 39.73 C 21.17 41.83 21.70 43.90 22.29 45.96 L 23.54 45.30 C 23.31 47.35 23.09 49.39 22.90 51.44 L 24.93 49.10 C 24.70 50.05 24.25 51.95 24.03 52.90 L 25.49 52.59 C 25.39 53.43 25.17 55.11 25.07 55.95 C 25.84 55.85 27.39 55.67 28.16 55.58 C 27.87 52.41 26.62 49.38 25.38 46.48 C 25.28 45.08 25.18 43.67 25.05 42.27 L 23.76 42.68 C 24.20 40.98 24.11 39.23 22.80 37.95 C 22.40 37.85 21.60 37.64 21.20 37.54 C 21.15 35.60 21.83 33.40 20.06 31.87 C 17.72 34.20 19.58 37.33 20.76 39.73 Z" />
<path fill="#ffffff" opacity="1.00" d=" M 55.23 29.62 C 55.73 29.66 56.72 29.74 57.22 29.78 C 57.51 29.34 58.09 28.45 58.38 28.01 C 59.06 28.45 60.40 29.34 61.08 29.79 C 61.03 32.61 58.78 31.01 57.10 31.47 C 56.48 30.85 55.85 30.24 55.23 29.62 Z" />
<path fill="#ffffff" opacity="1.00" d=" M 63.91 32.56 C 62.04 32.81 61.52 28.03 63.83 29.05 C 64.60 30.24 64.62 31.40 63.91 32.56 Z" />
<path fill="#ffffff" opacity="1.00" d=" M 128.32 31.82 C 129.99 30.43 131.60 28.97 133.28 27.59 C 132.15 30.30 130.53 32.77 129.38 35.47 C 130.74 35.21 132.10 34.92 133.44 34.58 C 133.92 35.36 134.40 36.14 134.88 36.92 L 135.26 34.52 L 136.08 33.96 C 135.91 34.82 135.59 36.55 135.42 37.41 C 136.55 38.06 137.44 38.95 138.11 40.06 C 136.18 40.77 135.63 42.30 136.45 44.64 C 135.49 44.67 134.53 44.65 133.57 44.61 C 135.71 43.29 134.88 40.37 135.64 38.33 C 134.74 37.78 133.85 37.22 132.96 36.66 C 132.73 37.31 132.28 38.60 132.05 39.25 C 132.12 38.32 132.24 36.47 132.30 35.54 C 131.32 35.70 130.35 35.87 129.38 36.06 L 129.26 37.11 L 129.06 36.17 C 128.76 34.73 128.53 33.28 128.32 31.82 Z" />
<path fill="#ffffff" opacity="1.00" d=" M 140.68 28.85 C 141.47 29.58 143.18 30.19 142.47 31.59 C 141.27 34.24 143.43 36.63 143.16 39.33 C 142.77 38.87 142.00 37.96 141.62 37.50 C 141.18 37.77 140.30 38.32 139.87 38.59 C 142.24 35.72 140.74 32.23 140.68 28.85 Z" />
<path fill="#ffffff" opacity="1.00" d=" M 146.62 33.87 C 148.39 31.74 150.77 30.21 153.44 29.46 C 152.76 29.91 151.40 30.81 150.72 31.26 C 149.57 32.78 149.98 34.39 150.98 35.90 C 151.45 35.46 152.40 34.58 152.87 34.15 C 152.91 34.71 153.00 35.84 153.04 36.40 C 153.56 36.40 154.61 36.39 155.13 36.39 C 154.52 36.48 153.29 36.66 152.67 36.75 C 152.88 37.29 153.30 38.38 153.51 38.93 C 152.46 38.83 151.41 38.74 150.35 38.65 L 150.36 38.48 C 150.98 36.00 148.33 34.81 146.62 33.87 M 151.13 37.22 C 151.80 37.89 151.80 37.89 151.13 37.22 Z" />
<path fill="#ffffff" opacity="1.00" d=" M 64.82 30.56 C 66.71 31.96 67.78 34.24 69.97 35.28 L 69.73 35.62 C 69.10 35.76 67.83 36.04 67.20 36.18 C 66.30 34.36 65.38 32.53 64.82 30.56 Z" />
<path fill="#ffffff" opacity="1.00" d=" M 145.25 31.19 C 145.86 31.89 145.86 31.89 145.25 31.19 Z" />
<path fill="#ffffff" opacity="1.00" d=" M 11.82 34.02 C 12.92 34.75 14.01 35.49 15.01 36.37 C 14.75 37.01 14.24 38.29 13.99 38.93 C 16.40 40.05 16.37 42.87 17.04 45.06 C 17.36 47.05 18.39 49.15 17.31 51.12 C 17.67 51.26 18.40 51.54 18.76 51.68 C 18.72 56.26 19.45 60.81 20.75 65.20 C 22.01 68.94 21.94 73.06 23.93 76.55 C 23.04 77.01 22.15 77.47 21.26 77.94 C 21.43 75.82 21.65 73.66 20.97 71.59 C 19.88 67.05 18.45 62.57 17.90 57.91 C 17.53 57.58 16.80 56.91 16.43 56.58 C 16.67 54.89 16.97 53.18 16.26 51.55 C 16.27 51.11 16.29 50.22 16.30 49.78 C 14.75 47.57 14.43 44.77 14.53 42.14 C 14.21 41.86 13.57 41.29 13.25 41.00 L 13.19 40.94 C 13.60 38.49 12.26 36.35 11.82 34.02 Z" />
<path fill="#ffffff" opacity="1.00" d=" M 61.96 33.73 C 62.70 34.33 63.43 34.94 64.16 35.56 C 66.35 37.78 65.98 41.47 68.62 43.45 C 68.42 43.75 68.04 44.36 67.85 44.66 C 67.96 46.22 67.94 47.77 67.80 49.33 C 66.92 47.92 66.91 46.27 67.17 44.68 L 66.34 44.12 L 66.01 43.81 C 65.65 41.55 66.07 38.48 63.42 37.54 C 61.71 37.00 62.13 35.10 61.96 33.73 Z" />
<path fill="#ffffff" opacity="1.00" d=" M 139.19 34.19 C 139.78 34.81 139.78 34.81 139.19 34.19 Z" />
<path fill="#ffffff" opacity="1.00" d=" M 163.04 40.13 C 163.45 38.22 162.88 35.87 164.44 34.37 C 163.73 36.74 164.61 38.80 166.90 39.73 L 167.35 40.03 C 165.10 40.03 162.86 40.16 160.62 40.34 L 161.06 38.93 L 163.04 40.13 Z" />
<path fill="#ffffff" opacity="1.00" d=" M 54.39 40.46 C 55.01 38.86 53.64 36.23 55.61 35.41 C 57.48 36.22 55.74 39.04 55.10 40.32 C 54.93 40.36 54.57 40.43 54.39 40.46 Z" />
<path fill="#ffffff" opacity="1.00" d=" M 69.83 41.31 C 69.47 40.50 69.77 39.41 70.67 39.14 C 70.81 40.36 71.07 41.54 71.45 42.70 L 72.03 42.94 C 71.98 44.61 72.77 46.81 71.52 48.15 C 70.70 45.94 70.26 43.62 69.83 41.31 Z" />
<path fill="#ffffff" opacity="1.00" d=" M 173.69 38.80 C 173.79 39.20 173.99 40.02 174.10 40.42 C 175.44 42.71 172.33 43.19 170.93 44.13 C 169.20 41.77 174.33 41.86 173.59 39.34 L 173.69 38.80 Z" />
<path fill="#ffffff" opacity="1.00" d=" M 177.41 37.57 C 179.13 40.18 179.37 43.37 180.44 46.25 C 180.92 48.61 182.20 50.99 181.84 53.43 L 181.37 53.50 C 180.53 53.43 179.94 53.80 179.59 54.60 L 179.08 55.31 L 179.30 53.30 C 177.86 53.21 175.78 54.04 175.65 51.78 C 176.49 52.09 178.18 52.71 179.02 53.02 C 178.77 52.27 178.25 50.76 177.99 50.00 C 178.75 50.57 179.52 51.13 180.31 51.67 C 179.80 48.09 178.56 44.69 177.40 41.29 C 177.08 42.69 176.66 44.07 176.13 45.41 C 176.33 42.76 176.94 40.17 177.41 37.57 Z" />
<path fill="#ffffff" opacity="1.00" d=" M 56.89 39.84 C 57.17 39.83 57.73 39.82 58.01 39.81 C 58.13 40.35 58.36 41.44 58.47 41.98 C 56.86 44.92 53.52 47.86 54.41 51.40 L 54.15 51.39 C 53.52 51.40 52.27 51.41 51.64 51.41 C 51.28 52.80 50.99 54.19 50.80 55.61 C 49.47 56.89 48.30 58.37 46.63 59.25 C 46.47 61.33 44.35 62.75 44.83 65.00 C 44.40 64.99 43.55 64.98 43.12 64.97 C 43.06 65.68 42.92 67.12 42.86 67.83 L 41.78 65.84 C 41.39 66.70 41.00 67.57 40.62 68.44 L 40.72 65.66 C 39.72 67.04 38.51 67.81 37.09 67.97 C 37.21 70.14 35.17 71.54 33.94 73.08 C 34.26 74.05 34.59 75.02 34.93 75.99 C 34.49 75.58 33.62 74.75 33.18 74.34 C 33.01 75.66 32.69 76.94 32.22 78.18 C 32.34 76.24 32.69 74.32 33.15 72.43 C 33.49 70.23 35.95 69.25 36.42 67.07 L 37.68 67.69 C 37.69 64.87 43.17 65.59 41.38 62.41 C 45.11 63.30 44.68 58.14 47.57 57.39 C 48.29 56.05 49.30 54.91 50.35 53.83 C 50.19 51.15 52.60 49.60 53.67 47.42 C 54.10 46.30 55.11 45.68 56.06 45.06 C 56.49 43.35 57.25 41.66 56.89 39.84 Z" />
<path fill="#ffffff" opacity="1.00" d=" M 151.21 40.22 C 152.66 39.76 152.68 43.20 151.24 42.82 C 151.23 42.17 151.22 40.87 151.21 40.22 Z" />
<path fill="#ffffff" opacity="1.00" d=" M 51.74 44.49 C 52.56 43.11 53.45 41.77 54.39 40.46 C 54.37 44.19 50.56 45.24 49.00 48.14 C 48.42 49.64 48.16 51.23 47.82 52.79 C 45.84 53.49 44.92 55.45 44.63 57.40 L 43.67 57.13 C 43.15 58.53 42.66 59.95 41.84 61.21 C 41.41 61.13 40.57 60.99 40.14 60.92 C 40.08 61.50 39.97 62.66 39.91 63.24 C 38.64 63.15 37.42 63.50 36.23 63.86 C 35.81 65.31 34.86 66.47 34.03 67.68 L 33.06 67.07 C 34.52 69.60 31.39 69.36 31.04 71.05 C 30.70 73.05 28.79 73.88 27.33 74.96 L 29.43 76.71 C 28.91 79.60 26.61 76.20 26.65 74.83 C 27.61 72.73 30.17 71.96 30.66 69.58 C 32.37 68.25 32.90 65.96 34.62 64.66 C 35.38 63.37 36.70 62.23 36.50 60.58 C 37.05 60.89 38.14 61.51 38.69 61.82 C 39.35 60.61 40.41 59.98 41.88 59.92 C 41.60 58.47 42.19 57.49 43.66 56.98 C 43.45 55.54 43.10 54.14 42.63 52.77 C 44.02 53.52 45.42 53.42 46.83 52.48 C 48.14 49.90 48.13 46.90 49.52 44.34 C 50.07 44.37 51.18 44.45 51.74 44.49 Z" />
<path fill="#ffffff" opacity="1.00" d=" M 131.17 41.40 L 131.89 41.44 C 131.88 41.86 131.85 42.72 131.84 43.15 L 131.13 43.11 C 131.14 42.69 131.16 41.83 131.17 41.40 Z" />
<path fill="#ffffff" opacity="1.00" d=" M 168.56 44.57 C 169.03 43.93 169.95 42.66 170.41 42.02 C 170.17 44.10 169.26 45.98 168.70 47.97 C 168.92 50.25 171.20 48.29 172.47 48.32 C 171.63 49.46 170.72 50.60 169.49 51.34 C 168.79 50.23 168.45 48.87 167.44 47.99 C 167.03 48.58 166.23 49.76 165.82 50.35 L 165.89 49.43 C 165.94 48.91 166.03 47.88 166.08 47.37 C 166.87 46.40 167.70 45.47 168.56 44.57 Z" />
<path fill="#ffffff" opacity="1.00" d=" M 57.86 47.08 C 57.70 45.56 58.05 44.05 58.99 42.84 C 59.21 45.63 58.70 48.41 58.97 51.20 C 57.58 52.10 56.21 53.04 54.81 53.96 L 55.34 55.49 C 52.72 55.68 51.70 58.33 51.79 60.62 C 50.14 62.82 45.76 64.88 47.44 68.06 C 46.54 68.94 45.47 69.32 44.22 69.21 C 44.14 69.86 43.98 71.15 43.90 71.80 C 43.38 72.02 42.35 72.45 41.83 72.67 C 41.39 75.58 40.12 78.21 38.25 80.48 C 37.06 80.94 35.95 81.54 35.23 82.64 C 34.76 79.59 38.09 78.86 39.65 77.02 C 40.17 75.06 41.62 73.31 41.46 71.20 L 42.60 71.80 C 42.82 70.43 43.24 69.14 44.66 68.64 C 46.94 66.79 45.97 62.72 48.98 61.67 C 48.99 61.27 49.01 60.45 49.02 60.05 C 49.46 60.00 50.34 59.92 50.78 59.88 C 51.50 56.85 54.06 54.56 54.15 51.39 C 54.96 51.39 56.59 51.39 57.40 51.39 C 57.52 49.56 57.12 47.86 56.21 46.26 L 57.86 47.08 Z" />
<path fill="#ffffff" opacity="1.00" d=" M 149.46 47.14 C 149.03 46.23 149.71 44.19 150.88 44.34 C 151.72 45.30 150.95 47.79 149.46 47.14 Z" />
<path fill="#ffffff" opacity="1.00" d=" M 131.97 50.91 C 129.66 49.67 128.90 45.18 131.36 43.81 C 131.61 46.17 131.79 48.54 131.97 50.91 Z" />
<path fill="#ffffff" opacity="1.00" d=" M 69.28 46.69 C 71.61 46.17 69.47 50.18 68.94 47.49 L 69.28 46.69 Z" />
<path fill="#ffffff" opacity="1.00" d=" M 134.73 46.54 C 134.26 46.02 134.26 46.02 134.73 46.54 Z" />
<path fill="#ffffff" opacity="1.00" d=" M 134.73 46.54 C 135.63 46.28 136.48 45.91 137.30 45.44 C 136.77 46.85 136.27 48.27 135.80 49.69 C 136.26 50.09 137.19 50.88 137.66 51.27 C 137.30 52.52 137.04 53.79 136.81 55.06 L 136.02 54.97 C 135.99 54.33 135.95 53.06 135.93 52.42 C 134.38 50.90 135.20 48.46 134.73 46.54 Z" />
<path fill="#ffffff" opacity="1.00" d=" M 176.03 47.87 C 176.54 46.98 177.20 46.22 178.01 45.59 C 177.54 46.70 177.06 47.80 176.57 48.89 C 176.01 48.65 174.88 48.17 174.32 47.93 C 174.24 49.97 173.37 53.76 176.20 54.36 C 175.07 54.96 173.97 55.64 173.43 56.86 C 172.78 56.49 172.14 56.13 171.50 55.76 C 171.86 54.68 172.25 53.60 172.77 52.58 C 173.05 53.47 173.60 55.23 173.88 56.11 C 174.30 53.41 173.25 50.83 173.13 48.18 C 174.02 47.66 175.06 47.85 176.03 47.87 Z" />
<path fill="#ffffff" opacity="1.00" d=" M 70.18 49.38 C 70.42 49.33 70.89 49.24 71.13 49.19 C 70.90 51.30 71.79 52.08 73.82 51.53 C 71.42 52.28 71.89 54.68 72.33 56.63 C 71.95 56.59 71.19 56.50 70.81 56.45 C 71.12 58.28 71.64 60.05 72.08 61.85 C 70.26 61.02 69.37 59.10 70.27 57.24 C 71.55 54.74 70.91 51.94 70.18 49.38 Z" />
<path fill="#ffffff" opacity="1.00" d=" M 131.44 51.05 C 133.05 51.96 134.03 53.48 134.77 55.11 C 133.87 55.25 132.98 55.40 132.09 55.56 C 131.92 54.43 131.60 52.18 131.44 51.05 Z" />
<path fill="#ffffff" opacity="1.00" d=" M 56.67 59.27 C 57.17 56.70 57.78 54.12 58.86 51.72 C 60.38 54.56 58.71 57.33 57.02 59.53 C 56.74 61.90 56.35 64.26 55.80 66.58 C 55.46 66.05 54.78 65.00 54.44 64.47 C 54.35 65.23 54.17 66.77 54.08 67.53 C 52.85 66.96 51.52 67.23 50.26 67.53 C 50.12 68.72 51.40 70.93 49.67 71.48 C 45.78 72.00 47.64 77.96 43.41 78.15 L 43.20 80.79 L 45.70 80.81 C 43.08 81.01 41.60 83.34 39.32 84.35 C 38.68 86.14 37.96 87.89 37.45 89.72 C 36.99 89.73 36.06 89.76 35.60 89.77 C 35.35 89.15 34.87 87.92 34.63 87.30 C 35.78 87.27 36.93 87.21 38.08 87.12 L 36.40 85.93 C 37.48 85.13 38.19 84.01 38.93 82.92 C 40.21 81.41 44.20 81.31 40.60 78.15 L 42.97 80.94 C 42.12 78.31 44.45 76.66 44.43 74.25 L 45.67 75.59 C 45.96 74.01 45.94 72.29 47.15 71.08 C 49.52 68.55 49.52 63.83 53.68 63.29 C 54.45 61.61 54.69 59.77 55.08 57.98 L 56.67 59.27 Z" />
<path fill="#ffffff" opacity="1.00" d=" M 69.20 53.76 L 69.91 53.77 C 69.90 54.19 69.90 55.03 69.89 55.45 L 69.15 55.44 C 69.16 55.02 69.19 54.18 69.20 53.76 Z" />
<path fill="#ffffff" opacity="1.00" d=" M 145.60 54.93 C 146.83 54.76 148.05 54.59 149.28 54.40 C 150.35 57.28 150.39 60.40 150.68 63.43 C 150.29 64.62 149.91 65.82 149.56 67.02 C 150.41 67.02 152.11 67.03 152.96 67.03 C 152.98 67.71 153.02 69.07 153.03 69.75 C 150.78 68.75 148.22 67.74 149.26 64.55 C 147.51 63.47 147.89 66.76 147.57 67.60 C 147.09 69.26 146.63 70.91 146.11 72.55 C 146.04 71.19 146.01 69.83 146.05 68.47 C 146.50 67.57 147.42 65.78 147.88 64.88 C 147.16 65.37 145.74 66.35 145.03 66.84 C 145.18 66.32 145.49 65.30 145.64 64.78 C 146.38 63.79 149.81 62.19 148.05 61.00 C 146.57 59.98 145.32 61.25 144.07 61.98 C 144.71 60.44 144.98 58.80 144.97 57.14 L 144.99 56.77 C 145.84 57.91 146.18 60.02 148.08 59.39 C 149.14 58.66 149.49 57.57 149.13 56.12 C 147.89 55.90 146.38 56.16 145.60 54.93 M 149.01 61.58 L 148.57 62.42 C 149.75 64.37 151.44 60.86 149.01 61.58 Z" />
<path fill="#ffffff" opacity="1.00" d=" M 136.88 55.44 C 137.64 55.34 139.16 55.14 139.92 55.04 C 139.96 56.51 139.99 57.98 140.01 59.46 C 140.49 59.02 141.46 58.13 141.94 57.69 C 142.03 58.60 142.13 59.51 142.22 60.42 C 141.47 60.22 139.96 59.82 139.21 59.62 C 139.13 57.89 137.86 56.72 136.88 55.44 Z" />
<path fill="#ffffff" opacity="1.00" d=" M 134.18 56.95 C 136.05 57.22 136.05 59.77 137.57 60.68 L 137.46 61.37 C 138.31 62.06 139.15 62.76 139.99 63.46 C 140.18 62.78 140.56 61.42 140.75 60.74 C 140.83 61.39 141.00 62.70 141.08 63.35 C 144.31 62.61 144.27 66.10 144.02 68.30 L 143.40 68.28 C 142.84 67.22 143.28 64.69 141.52 64.78 C 138.89 65.28 137.17 63.00 136.15 60.96 C 135.38 59.87 134.36 59.22 133.09 59.01 C 133.36 58.49 133.91 57.46 134.18 56.95 Z" />
<path fill="#ffffff" opacity="1.00" d=" M 171.08 56.85 L 172.59 56.91 C 172.72 60.44 168.71 62.07 168.84 65.48 L 168.79 66.20 C 168.55 65.48 168.08 64.03 167.85 63.30 C 167.49 64.03 166.77 65.47 166.40 66.20 C 165.84 64.91 165.29 63.61 164.76 62.31 L 166.63 62.68 C 166.78 62.26 167.08 61.42 167.22 61.00 C 167.59 61.33 168.34 62.00 168.71 62.34 C 168.83 60.83 168.95 59.33 169.09 57.82 C 169.71 58.76 170.33 59.71 170.96 60.65 C 170.99 59.70 171.05 57.80 171.08 56.85 Z" />
<path fill="#ffffff" opacity="1.00" d=" M 176.18 57.86 C 178.52 55.96 178.98 59.05 176.70 59.80 C 176.57 59.31 176.31 58.34 176.18 57.86 Z" />
<path fill="#ffffff" opacity="1.00" d=" M 63.13 67.73 C 66.35 65.31 64.90 60.51 67.07 57.34 C 68.48 60.44 67.04 63.30 65.32 65.86 C 65.70 66.13 66.47 66.67 66.85 66.94 C 66.81 68.56 67.28 70.11 67.79 71.63 C 66.35 70.38 66.02 68.41 65.03 66.86 C 64.62 69.04 64.20 71.21 63.54 73.33 C 61.66 71.88 63.93 69.67 63.13 67.73 Z" />
<path fill="#ffffff" opacity="1.00" d=" M 70.80 65.83 C 68.65 66.53 68.19 61.96 69.57 61.29 C 69.76 62.84 71.31 64.28 70.80 65.83 Z" />
<path fill="#ffffff" opacity="1.00" d=" M 158.70 63.60 C 159.37 62.17 160.56 61.61 162.29 61.92 C 161.48 62.84 160.66 63.73 159.82 64.62 C 158.85 64.13 157.87 63.65 156.90 63.16 C 157.35 63.27 158.25 63.49 158.70 63.60 Z" />
<path fill="#ffffff" opacity="1.00" d=" M 153.14 64.27 C 153.78 64.81 153.78 64.81 153.14 64.27 Z" />
<path fill="#ffffff" opacity="1.00" d=" M 155.30 64.28 C 155.98 64.94 155.98 64.94 155.30 64.28 Z" />
<path fill="#ffffff" opacity="1.00" d=" M 164.05 64.00 L 164.78 63.94 C 164.80 64.37 164.85 65.21 164.87 65.63 L 164.14 65.68 C 164.12 65.26 164.07 64.42 164.05 64.00 Z" />
<path fill="#ffffff" opacity="1.00" d=" M 66.85 66.94 C 66.98 66.49 67.25 65.58 67.38 65.13 C 68.51 65.84 71.12 68.46 68.93 69.31 C 68.13 68.66 67.43 67.87 66.85 66.94 Z" />
<path fill="#ffffff" opacity="1.00" d=" M 157.86 67.60 C 159.89 67.21 161.52 65.84 163.26 64.82 L 163.68 66.11 C 162.25 66.40 161.63 67.32 161.84 68.88 C 159.67 68.78 157.51 68.60 155.35 68.34 L 154.00 69.33 C 154.00 68.70 154.00 67.43 154.01 66.79 C 155.32 66.92 156.61 67.19 157.86 67.60 Z" />
<path fill="#ffffff" opacity="1.00" d=" M 52.81 68.31 C 53.64 68.19 54.47 68.08 55.30 67.98 C 55.16 68.69 54.88 70.12 54.74 70.83 L 53.43 70.07 C 52.89 72.08 52.25 74.05 51.62 76.02 L 50.10 74.26 C 50.07 75.22 50.00 77.14 49.97 78.10 C 49.44 78.06 48.39 77.97 47.86 77.93 L 48.94 79.59 C 48.95 80.38 48.98 81.98 48.99 82.77 C 48.53 81.76 47.60 79.75 47.14 78.74 C 47.37 81.14 46.39 83.37 46.19 85.71 C 45.26 85.70 44.34 85.68 43.41 85.66 C 47.76 88.19 41.46 88.60 42.84 91.71 C 42.42 91.48 41.58 91.02 41.16 90.79 C 41.67 92.41 41.51 93.93 40.24 95.09 C 39.76 95.90 38.81 97.51 38.33 98.31 C 38.52 95.22 40.83 92.70 40.13 89.52 C 40.59 89.57 41.53 89.65 41.99 89.70 C 41.76 88.81 41.53 87.93 41.30 87.05 C 44.27 86.88 42.51 81.74 45.79 82.24 C 46.30 80.56 46.79 78.88 47.24 77.19 C 47.64 77.30 48.43 77.52 48.83 77.63 C 48.91 76.10 49.29 74.55 50.34 73.39 C 52.40 72.59 52.11 70.04 52.81 68.31 Z" />
<path fill="#ffffff" opacity="1.00" d=" M 143.91 69.18 C 147.20 69.15 142.40 72.32 143.91 69.18 Z" />
<path fill="#ffffff" opacity="1.00" d=" M 60.86 70.94 L 61.14 71.10 C 62.71 74.16 64.52 78.93 60.91 81.33 C 61.30 79.36 61.95 77.44 62.20 75.44 L 61.00 75.37 C 61.00 76.24 61.00 77.97 61.00 78.84 L 59.76 78.78 C 59.76 76.11 62.15 74.03 60.87 71.25 L 60.86 70.94 Z" />
<path fill="#ffffff" opacity="1.00" d=" M 65.19 71.33 L 65.93 71.24 C 65.97 72.93 66.21 74.61 67.01 76.12 C 66.59 75.97 65.74 75.65 65.32 75.50 C 64.98 75.93 64.30 76.80 63.96 77.24 C 64.56 75.31 65.08 73.35 65.19 71.33 Z" />
<path fill="#ffffff" opacity="1.00" d=" M 144.17 71.18 C 144.66 71.52 145.63 72.21 146.11 72.55 C 145.97 74.84 145.44 77.07 144.85 79.27 L 144.41 79.10 C 143.97 78.27 143.10 76.62 142.67 75.79 C 142.83 78.07 143.41 80.28 144.09 82.45 L 142.42 80.70 C 142.13 84.57 141.49 88.48 139.61 91.94 C 139.29 91.39 138.63 90.30 138.30 89.76 C 138.15 90.28 137.86 91.34 137.71 91.87 C 135.80 91.22 138.43 88.09 138.41 86.63 C 138.72 87.40 139.33 88.93 139.63 89.70 C 140.25 87.90 139.66 86.18 139.34 84.43 C 139.63 84.25 140.22 83.87 140.51 83.68 C 140.79 82.82 141.34 81.11 141.62 80.26 C 141.03 80.09 139.85 79.76 139.26 79.59 C 137.90 81.21 137.78 83.22 137.94 85.23 C 136.86 85.65 135.77 86.06 134.68 86.46 C 134.93 85.19 135.67 84.35 136.90 83.95 C 137.46 81.53 137.88 79.09 138.34 76.66 C 138.57 77.29 139.03 78.54 139.26 79.16 C 141.36 79.23 142.50 77.82 142.60 75.81 C 141.58 75.59 139.53 75.17 138.51 74.95 C 140.32 74.44 142.21 74.43 144.07 74.30 C 143.93 74.87 143.65 76.02 143.51 76.60 L 145.13 76.47 C 144.84 74.70 144.49 72.94 144.17 71.18 Z" />
<path fill="#ffffff" opacity="1.00" d=" M 58.52 77.67 C 59.74 79.13 60.07 81.08 60.00 82.94 C 58.65 84.24 56.79 85.20 56.50 87.26 C 56.09 86.13 54.28 83.83 56.88 83.76 C 56.85 81.60 57.57 79.58 58.52 77.67 M 58.09 81.42 C 56.61 84.48 61.31 81.58 58.09 81.42 Z" />
<path fill="#ffffff" opacity="1.00" d=" M 21.82 79.35 C 22.85 78.71 25.22 79.56 24.52 81.01 C 23.53 82.12 21.02 80.74 21.82 79.35 Z" />
<path fill="#ffffff" opacity="1.00" d=" M 28.27 79.21 C 28.91 79.27 30.19 79.40 30.84 79.46 C 28.12 81.43 31.16 83.16 31.65 85.20 C 32.30 85.88 32.96 86.57 33.61 87.26 C 33.68 89.95 34.12 92.93 36.20 94.86 C 34.73 96.95 37.11 99.46 37.15 101.72 L 39.09 100.36 L 37.50 106.27 L 36.69 103.08 L 35.01 102.74 C 35.33 102.38 35.96 101.68 36.27 101.32 C 35.55 99.48 34.84 97.60 34.86 95.59 C 34.65 95.42 34.23 95.09 34.02 94.92 C 33.80 94.47 33.36 93.56 33.14 93.11 L 32.82 94.05 C 33.12 94.27 33.72 94.70 34.02 94.92 C 34.42 96.38 34.15 97.63 33.23 98.67 C 33.23 96.47 32.50 94.41 31.83 92.35 L 33.21 91.59 C 33.16 90.69 33.05 88.88 33.00 87.98 C 32.33 89.06 31.75 90.20 31.15 91.33 C 31.07 90.62 30.92 89.20 30.84 88.50 L 31.44 89.29 C 31.43 88.38 31.41 86.55 31.39 85.64 C 30.85 85.42 29.75 84.99 29.20 84.77 C 29.11 82.88 28.93 80.99 28.27 79.21 Z" />
<path fill="#ffffff" opacity="1.00" d=" M 33.36 81.15 C 34.59 81.59 34.86 82.45 34.16 83.74 C 32.96 83.27 32.69 82.40 33.36 81.15 Z" />
<path fill="#ffffff" opacity="1.00" d=" M 22.45 82.84 C 23.22 82.99 24.74 83.28 25.51 83.42 C 25.00 84.49 24.49 85.55 23.99 86.62 C 25.02 87.07 26.06 87.51 27.10 87.94 C 26.88 88.76 26.44 90.38 26.22 91.19 C 27.12 91.88 28.03 92.57 28.94 93.25 C 28.99 93.82 29.10 94.94 29.15 95.51 C 29.84 97.80 30.71 100.03 32.59 101.62 C 31.94 101.70 30.66 101.87 30.02 101.95 C 28.57 98.79 28.46 94.73 25.31 92.66 C 24.94 90.43 24.07 88.35 23.06 86.34 C 22.91 85.47 22.61 83.72 22.45 82.84 Z" />
<path fill="#ffffff" opacity="1.00" d=" M 54.22 85.03 L 55.33 84.93 C 55.17 86.16 54.98 87.38 54.76 88.60 C 53.64 90.15 51.74 91.20 51.71 93.34 C 51.32 92.74 50.54 91.54 50.15 90.93 C 50.15 92.87 50.29 97.50 47.04 96.03 C 46.82 98.26 46.47 100.57 48.26 102.29 C 48.98 101.95 49.71 101.62 50.43 101.29 C 51.12 102.26 52.02 102.97 53.13 103.43 C 52.56 103.46 51.42 103.51 50.85 103.54 C 51.34 105.59 53.62 108.75 50.01 108.90 C 50.01 109.49 50.00 110.66 49.99 111.25 L 49.00 111.34 C 48.28 108.32 50.72 105.97 50.01 102.95 C 49.59 103.39 48.77 104.27 48.35 104.71 C 47.81 103.54 47.26 102.37 46.70 101.21 C 44.84 100.69 43.38 101.98 41.84 102.76 C 42.09 103.43 42.61 104.78 42.87 105.45 C 42.91 106.09 43.01 107.37 43.05 108.00 L 42.28 107.99 C 41.96 107.37 41.30 106.13 40.98 105.51 C 40.97 103.33 41.72 101.27 42.40 99.24 L 44.05 100.27 C 44.03 99.69 44.00 98.55 43.98 97.98 L 44.74 98.04 C 45.01 98.54 45.54 99.55 45.81 100.06 C 45.85 97.45 46.77 95.01 47.23 92.47 L 48.00 92.40 L 47.99 94.02 L 48.89 94.15 C 48.83 92.25 49.44 90.47 50.23 88.78 C 50.60 88.98 51.33 89.37 51.70 89.57 C 52.88 88.25 54.19 86.92 54.22 85.03 Z" />
<path fill="#ffffff" opacity="1.00" d=" M 134.37 87.71 C 134.86 88.66 135.07 89.66 135.02 90.72 C 134.41 91.38 133.77 92.01 133.10 92.60 C 132.63 90.85 133.26 89.08 134.37 87.71 Z" />
<path fill="#ffffff" opacity="1.00" d=" M 135.69 94.37 C 137.08 93.70 138.43 92.94 139.73 92.10 C 138.98 95.40 137.99 98.68 137.85 102.10 C 137.24 103.26 136.67 104.44 136.10 105.63 L 138.16 106.04 C 137.41 106.44 136.65 106.84 135.90 107.24 C 135.31 110.85 134.60 114.43 133.79 117.99 C 132.32 117.00 130.53 117.55 128.93 117.73 C 128.92 117.00 128.89 115.52 128.87 114.79 L 129.62 115.68 L 130.23 116.30 C 130.43 115.75 130.82 114.65 131.01 114.10 C 131.33 114.99 131.86 115.66 132.58 116.13 C 134.10 112.97 134.53 109.40 135.01 105.96 C 137.09 103.15 136.75 99.22 137.89 95.97 C 137.08 95.53 136.34 95.00 135.69 94.37 Z" />
<path fill="#ffffff" opacity="1.00" d=" M 130.05 96.13 C 131.00 94.77 132.14 93.54 133.97 94.05 C 133.24 95.04 132.48 96.04 131.18 96.25 C 130.48 98.29 129.88 100.38 129.86 102.56 C 127.75 104.00 128.23 107.08 126.08 108.39 C 126.01 109.04 125.87 110.33 125.80 110.98 C 125.21 109.76 123.47 108.73 124.19 107.23 C 124.56 107.19 125.30 107.11 125.67 107.07 C 125.76 105.79 126.39 104.95 127.56 104.54 C 127.40 103.43 127.09 101.21 126.93 100.10 C 127.44 100.68 128.46 101.84 128.97 102.42 C 129.00 101.67 129.05 100.17 129.08 99.42 C 129.95 98.55 130.28 97.45 130.05 96.13 Z" />
<path fill="#ffffff" opacity="1.00" d=" M 132.64 99.42 C 133.89 98.59 135.14 97.76 136.39 96.92 C 135.62 99.87 134.72 102.88 135.01 105.96 C 134.23 106.82 133.59 107.79 133.10 108.85 C 132.78 106.83 132.28 104.85 131.83 102.85 L 132.73 102.81 C 132.96 103.59 133.42 105.16 133.65 105.94 C 134.05 103.77 134.42 101.60 134.84 99.43 C 134.29 99.43 133.19 99.42 132.64 99.42 Z" />
<path fill="#ffffff" opacity="1.00" d=" M 31.12 105.07 C 30.50 103.12 32.48 103.23 33.79 103.12 C 33.87 104.07 34.02 105.98 34.10 106.94 C 34.46 106.45 35.19 105.47 35.55 104.98 C 35.89 105.63 36.58 106.91 36.92 107.56 C 36.94 108.48 36.97 110.32 36.98 111.25 L 36.21 110.55 C 36.10 109.94 35.86 108.73 35.74 108.13 C 34.26 107.35 32.62 106.63 32.68 104.66 C 32.29 104.76 31.51 104.96 31.12 105.07 Z" />
<path fill="#ffffff" opacity="1.00" d=" M 45.51 113.17 C 45.24 110.09 43.40 107.15 44.45 104.04 C 44.66 105.02 45.09 106.97 45.31 107.94 C 45.64 107.15 46.30 105.56 46.63 104.76 C 47.51 107.64 45.01 110.13 45.51 113.17 Z" />
<path fill="#ffffff" opacity="1.00" d=" M 40.15 110.69 C 39.85 109.86 39.43 107.75 40.65 107.59 C 41.18 109.22 42.69 111.00 41.85 112.77 C 40.99 112.53 40.42 111.84 40.15 110.69 Z" />
<path fill="#ffffff" opacity="1.00" d=" M 131.16 106.18 L 131.83 106.29 C 132.04 108.61 132.42 110.91 132.87 113.20 C 132.28 112.15 131.70 111.11 131.13 110.06 C 131.10 111.07 131.04 113.09 131.01 114.10 L 130.67 113.55 C 130.07 111.10 131.09 108.63 131.16 106.18 Z" />
<path fill="#ffffff" opacity="1.00" d=" M 38.11 108.20 C 41.23 108.50 36.59 111.40 38.11 108.20 Z" />
<path fill="#ffffff" opacity="1.00" d=" M 129.17 108.58 L 129.82 108.58 L 129.83 109.23 L 129.17 109.24 L 129.17 108.58 Z" />
<path fill="#ffffff" opacity="1.00" d=" M 47.17 108.95 C 48.76 109.57 48.16 111.81 47.77 113.05 C 46.54 112.09 46.66 110.25 47.17 108.95 Z" />
<path fill="#ffffff" opacity="1.00" d=" M 43.22 110.16 L 43.79 110.15 C 44.59 111.52 44.41 112.41 43.25 112.84 C 43.24 112.17 43.22 110.83 43.22 110.16 Z" />
<path fill="#ffffff" opacity="1.00" d=" M 123.00 110.27 L 123.77 110.30 C 123.84 110.71 123.97 111.53 124.03 111.94 C 123.71 111.68 123.06 111.16 122.74 110.90 L 123.00 110.27 Z" />
<path fill="#ffffff" opacity="1.00" d=" M 124.03 111.94 C 125.51 112.01 125.76 115.50 124.35 115.70 C 123.74 114.50 123.63 113.25 124.03 111.94 Z" />
<path fill="#ffffff" opacity="1.00" d=" M 128.11 112.35 C 131.27 112.62 126.61 115.49 128.11 112.35 Z" />
<path fill="#ffffff" opacity="1.00" d=" M 122.01 113.14 C 125.23 113.62 120.41 116.13 122.01 113.14 Z" />
<path fill="#ffffff" opacity="1.00" d=" M 127.40 117.68 C 126.64 116.66 125.02 113.77 126.63 113.16 C 127.23 114.54 128.21 116.11 127.91 117.67 L 127.40 117.68 Z" />
</g>
</svg>
