<svg id="Layer_1" data-name="Layer 1" xmlns="http://www.w3.org/2000/svg" viewBox="0 0 263.23 202.38"><defs><style>.cls-1{font-size:58.08px;fill:gray;font-family:SourceSansPro-Bold, Source Sans Pro;font-weight:700;}.cls-2{fill:#9e9e9e;}.cls-3{fill:#ccc;}.cls-4{fill:#747474;}</style></defs><title>Artboard 1</title><text class="cls-1" transform="translate(61.89 180.08)">eKDG</text><g id="layer1"><path class="cls-2" d="M124.31,93.1c-3.3-4.2-11.7-9.9-18.2-12.1-8.7-3-21.5-4.5-37.6-4.5H52.91l-4-4.8c-3.6-4.2-11.3-15.5-11.3-16.5,0-.2,2.6.5,5.7,1.6,5.1,1.7,7.4,1.8,19.8,1.2,16.5-.8,23.3.4,35.4,6.1,9.2,4.4,22.3,16.9,26.1,24.9,1.3,2.8,2.8,5.3,3.3,5.6s.5.9-.1,1.3S125.71,95,124.31,93.1Z"/><path class="cls-2" d="M126.91,89.2a61.36,61.36,0,0,0-11.3-14.8C105.21,63.9,97,59.7,81.71,56.6l-8.4-1.7-1.9-5.4c-1.6-4.8-3.4-13.1-5.2-23.7l-.5-3.2,5.2,1.6c8.2,2.4,22.6,9.9,29.4,15.3,13.4,10.8,24.1,27.6,28.6,45.3,1.2,4.8,2.5,8.7,2.8,8.7s1.5-3.8,2.7-8.4c7.4-30,28.5-52,58.7-61l4.3-1.4-.5,3.7a148.23,148.23,0,0,1-5.1,23.1c-1.9,5.4-1.9,5.5-6.8,6.3-9.1,1.6-20.3,5.6-26.9,9.7-8.2,5.3-17.6,15.5-21.6,23.6-1.7,3.4-3.7,6.5-4.5,6.8S129.41,94,126.91,89.2Z"/><path class="cls-2" d="M137.91,90.3c4.7-9.4,17.2-21.5,26.7-26.1,11.3-5.5,19.7-6.9,36.5-6.1,12.6.5,14.5.4,19.2-1.4l5.2-2-2.4,4.7a74.2,74.2,0,0,1-7.5,10.9l-5.2,6.2h-15.6c-28.9,0-43.6,4.1-54.3,15.1-2.6,2.7-5,4.9-5.3,4.9S136.11,93.7,137.91,90.3Z"/><path class="cls-3" d="M129.31,79.2A88.53,88.53,0,0,0,111.11,47c-3.4-3.7-3.6-4.2-3-8.4,1.8-11.7,8.2-23.5,18-33.1l5.6-5.5,7.4,7.6c8.4,8.8,13.7,18.6,15.6,28.9l1.1,6.5-3.7,4c-7.7,8.3-15.9,23.3-18.5,33.8-.7,2.6-1.5,4.7-1.9,4.7S130.31,82.7,129.31,79.2Z"/></g><g id="layer2"><path class="cls-4" d="M121.11,113.9c-30-12.5-68.8-12.9-101.8-1l-9.9,3.5-4.8-3.7c-2.7-2-4.8-4.1-4.6-4.7.5-1.8,17.6-8.5,29.1-11.5,16.7-4.3,26.7-5.3,45.5-4.7,17.2.6,27.4,2.3,42.3,7,6.2,2,8.5,2.3,11.2,1.6a13.69,13.69,0,0,1,7.5.1c2.6.7,4.6.7,5.8.1,3.2-1.7,24.4-7,32.5-8,18.8-2.6,43.3-.9,62.2,4.3,10,2.7,26.7,9.5,27.1,11.1.2.6-1.9,2.7-4.6,4.7l-4.8,3.7-9.9-3.5c-33.2-12-70.7-11.5-102.4,1.1-4.7,1.9-9.5,3.4-10.5,3.4A57.36,57.36,0,0,1,121.11,113.9Z"/><path class="cls-4" d="M116.21,96.9c-15.1-5.3-25.5-6.8-47.1-6.8-16.6,0-21.7.4-30,2.1-5.5,1.2-10.7,2.4-11.5,2.7-1.1.5-2.4-1.7-5.4-9.1-2.2-5.4-4.3-10.2-4.8-10.7-2.1-2.5-.4-2.4,3.9.1l4.8,2.8,30,.1c26.2.1,31.2.4,39.7,2.2,11.5,2.4,20.2,6.7,25.8,12.8C128.11,100.1,127.21,100.7,116.21,96.9Z"/><path class="cls-4" d="M137.61,98.5c0-2.1,9.8-10.9,15.1-13.5,10.7-5.5,21.1-6.8,54.4-6.9,29.2-.1,30.1-.2,33.8-2.3a19.94,19.94,0,0,1,4.6-2.3c.5,0-1.2,4.9-3.8,11-3.5,8.3-5,10.8-6.1,10.4-.8-.3-6-1.5-11.5-2.7-8.3-1.7-13.4-2.1-30-2.1-21.6,0-31.5,1.4-47.4,6.9C138.31,99.8,137.61,99.9,137.61,98.5Z"/></g></svg>