<?xml version="1.0" encoding="UTF-8"?>
<!DOCTYPE svg PUBLIC "-//W3C//DTD SVG 1.1//EN" "http://www.w3.org/Graphics/SVG/1.1/DTD/svg11.dtd">
<!-- Creator: CorelDRAW X6 -->
<svg xmlns="http://www.w3.org/2000/svg" xml:space="preserve" width="25mm" height="25mm" version="1.1" style="shape-rendering:geometricPrecision; text-rendering:geometricPrecision; image-rendering:optimizeQuality; fill-rule:evenodd; clip-rule:evenodd"
viewBox="0 0 2500 2500"
 xmlns:xlink="http://www.w3.org/1999/xlink">
 <defs>
  <style type="text/css">
   <![CDATA[
    .str1 {stroke:#2B2A29;stroke-width:7.62}
    .str0 {stroke:#2B2A29;stroke-width:20}
    .fil0 {fill:none}
    .fil1 {fill:#2B2A29;fill-rule:nonzero}
   ]]>
  </style>
 </defs>
 <g id="Layer_x0020_1">
  <metadata id="CorelCorpID_0Corel-Layer"/>
  <path class="fil0 str0" d="M1250 507c354,0 649,247 724,578l-1448 0c75,-331 370,-578 724,-578zm724 908c-75,331 -370,578 -724,578 -354,0 -649,-247 -724,-578l1448 0z"/>
  <path class="fil0 str0" d="M1250 177c593,0 1073,480 1073,1073 0,593 -480,1073 -1073,1073 -593,0 -1073,-480 -1073,-1073 0,-593 480,-1073 1073,-1073z"/>
  <path class="fil1" d="M467 873l-30 65 21 23c5,6 9,10 12,11 3,1 6,1 9,0 3,-2 6,-7 11,-14l4 2 -24 53 -5 -2c2,-8 3,-13 2,-16 -2,-6 -8,-15 -18,-25l-111 -124 2 -4 167 6c14,1 23,0 28,-2 5,-2 9,-7 13,-14l5 3 -31 66 -5 -2c3,-7 4,-12 3,-15 -1,-4 -2,-6 -5,-7 -4,-2 -10,-3 -20,-3l-28 -1zm-11 -1l-81 -3 54 60 27 -57zm9 -232l36 -54 5 3 -2 3c-2,2 -3,6 -4,10 -1,5 0,11 1,16 1,5 4,13 8,22l32 76 39 27c10,6 16,9 20,8 5,0 10,-4 14,-10l4 -5 4 3 -45 65 -4 -2 4 -6c4,-7 5,-12 3,-18 -1,-3 -6,-8 -15,-14l-35 -24 -94 -2c-11,-1 -17,0 -21,0 -3,1 -7,3 -14,7 -2,1 -3,2 -5,5l-5 -2 45 -66 4 3 -2 3c-3,4 -4,8 -4,12 -1,4 1,7 4,9 3,2 9,3 19,4l71 2 -26 -63c-4,-9 -8,-15 -11,-17 -2,-2 -5,-3 -7,-3 -3,0 -5,1 -7,2 -3,2 -5,5 -8,9l-4 -3zm179 -68l69 -52 -33 -42c-5,-8 -9,-12 -12,-14 -2,-1 -5,-2 -8,-1 -5,0 -9,2 -12,5l-5 4 -4 -4 64 -48 3 4 -5 4c-4,2 -7,6 -8,10 -2,3 -2,6 -1,9 1,3 4,8 9,15l73 96c5,7 9,12 12,13 2,2 5,2 8,2 5,-1 9,-3 12,-5l5 -4 4 4 -64 48 -3 -4 5 -4c6,-5 9,-10 10,-16 0,-3 -4,-10 -10,-19l-34 -45 -69 52 34 45c6,8 10,12 13,14 2,1 5,2 8,1 4,-1 8,-2 12,-5l5 -4 3 4 -63 48 -3 -4 5 -4c6,-5 9,-10 9,-15 0,-4 -3,-10 -10,-19l-72 -96c-6,-7 -10,-12 -13,-13 -2,-2 -4,-2 -8,-2 -4,1 -8,3 -12,5l-5 4 -3 -4 63 -48 3 4 -5 4c-3,3 -6,6 -8,10 -1,3 -2,6 -1,9 1,3 4,8 10,15l32 43zm264 -122l-65 30 0 31c1,8 1,14 3,17 1,2 3,4 7,5 3,1 9,0 17,-3l2 4 -53 24 -2 -4c6,-5 10,-8 11,-11 3,-6 4,-16 3,-31l-3 -166 4 -2 122 114c10,9 18,15 23,16 6,2 12,2 19,-1l2 4 -67 30 -2 -4c7,-3 11,-7 12,-10 2,-3 2,-5 1,-8 -2,-4 -6,-9 -13,-15l-21 -20zm-8 -7l-59 -56 2 82 57 -26zm68 -153l49 -8 134 120 -17 -106c-2,-11 -4,-18 -7,-21 -4,-3 -10,-4 -17,-3l-6 1 -1 -5 64 -10 1 5 -7 1c-7,1 -13,5 -15,10 -2,3 -2,10 0,20l25 154 -5 1 -144 -128 18 113c2,11 4,18 7,20 4,3 10,4 17,3l6 -1 1 5 -64 10 -1 -5 7 -1c8,-1 13,-4 15,-9 2,-4 2,-10 0,-20l-20 -128c-7,-5 -11,-9 -14,-10 -3,-2 -8,-3 -13,-4 -3,0 -7,0 -12,1l-1 -5zm374 57l85 13 8 -53c1,-9 1,-16 1,-19 -1,-2 -3,-4 -5,-6 -4,-3 -8,-5 -12,-5l-7 -1 1 -5 79 11 -1 5 -7 -1c-4,-1 -8,0 -12,1 -3,1 -6,3 -7,6 -2,3 -3,9 -4,18l-17 118c-2,10 -2,16 -1,19 0,2 2,4 4,6 4,3 8,5 12,6l7 0 -1 5 -78 -11 0 -5 7 1c7,1 13,0 17,-4 3,-3 5,-9 7,-20l8 -56 -85 -13 -8 56c-2,10 -2,16 -1,19 0,2 2,5 5,7 3,2 7,4 11,5l7 0 -1 5 -78 -11 0 -5 7 1c8,1 13,0 17,-4 3,-3 5,-9 7,-20l17 -119c1,-9 1,-16 1,-19 -1,-2 -3,-4 -5,-6 -4,-3 -8,-5 -12,-5l-7 -1 1 -5 79 11 -1 5 -7 -1c-4,-1 -8,0 -12,1 -3,1 -6,3 -7,6 -2,3 -3,9 -4,18l-8 52zm304 -13c22,11 37,28 45,52 8,24 6,48 -5,73 -12,25 -30,43 -54,52 -24,9 -47,9 -70,-2 -23,-11 -38,-28 -47,-52 -8,-23 -6,-48 7,-74 12,-27 31,-44 57,-53 23,-7 45,-6 67,4zm-7 8c-15,-7 -29,-7 -44,0 -17,9 -32,27 -45,53 -13,28 -17,52 -12,72 4,15 13,26 28,33 16,8 32,7 48,0 16,-8 30,-25 42,-51 13,-29 18,-53 13,-72 -4,-16 -14,-27 -30,-35zm272 161l-37 51 -3 -2c8,-18 10,-34 7,-47 -3,-13 -10,-24 -21,-33 -10,-8 -20,-13 -32,-14 -11,-1 -24,1 -37,8 -13,7 -26,19 -39,34 -10,13 -17,26 -21,39 -3,13 -3,26 1,37 4,12 12,23 22,31 10,8 19,13 30,14 10,2 24,1 42,-4l2 5c-18,6 -34,9 -48,7 -14,-2 -28,-8 -41,-19 -24,-19 -35,-43 -34,-71 1,-21 9,-41 23,-59 12,-14 26,-24 42,-31 16,-7 33,-9 49,-7 17,3 32,10 45,20 10,9 19,20 25,33 1,4 3,7 4,8 2,1 4,2 7,2 3,-1 6,-2 10,-5l4 3zm15 139l52 68 43 -32c7,-6 12,-10 13,-13 1,-2 2,-4 1,-8 0,-4 -2,-8 -4,-12l-4 -5 4 -3 47 63 -4 4 -4 -6c-2,-3 -5,-6 -10,-8 -2,-1 -5,-2 -8,-1 -3,1 -8,5 -16,10l-95 72c-8,6 -12,10 -14,13 -1,2 -2,5 -1,8 0,4 2,8 5,12l4 5 -4 3 -48 -63 4 -3 4 5c4,6 9,9 15,9 4,0 10,-3 19,-10l45 -34 -52 -68 -45 34c-7,5 -12,10 -14,12 -1,2 -1,5 -1,9 1,4 2,8 5,11l4 6 -4 3 -48 -64 4 -3 4 6c5,6 10,9 16,9 3,0 9,-3 18,-10l96 -72c7,-6 12,-10 14,-13 1,-2 1,-5 1,-8 -1,-5 -2,-9 -5,-12l-4 -5 4 -3 48 63 -4 3 -4 -5c-3,-4 -6,-6 -10,-8 -3,-2 -6,-2 -9,-1 -3,1 -8,4 -15,10l-43 32zm123 263l-30 -65 -31 1c-8,0 -14,1 -17,2 -3,1 -4,4 -5,7 -1,3 0,9 3,17l-4 2 -24 -53 4 -2c5,7 8,10 11,12 6,2 16,3 31,3l166 -4 1 5 -114 122c-9,10 -14,17 -16,23 -1,5 -1,11 2,18l-5 2 -30 -66 5 -2c3,6 6,10 9,12 3,1 6,1 9,0 4,-2 9,-6 15,-13l20 -21zm7 -7l55 -60 -81 2 26 58z"/>
  <path class="fil1" d="M2028 1637l31 -65 -21 -23c-6,-6 -10,-10 -13,-11 -3,-1 -6,-1 -9,0 -3,2 -6,7 -11,14l-4 -2 24 -53 5 2c-2,8 -3,13 -2,16 2,6 8,15 18,25l111 124 -2 4 -167 -6c-13,-1 -23,0 -28,2 -5,2 -9,7 -13,14l-4 -3 30 -66 5 2c-3,7 -4,12 -3,15 1,4 3,6 5,7 4,2 10,3 20,3l28 1zm11 1l81 3 -54 -60 -27 57zm-23 242l-40 50 -4 -3 2 -3c1,-2 3,-5 4,-10 1,-5 2,-10 1,-15 -1,-6 -3,-13 -6,-23l-26 -78 -37 -30c-9,-7 -15,-11 -19,-11 -5,1 -10,4 -15,9l-3 5 -4 -3 50 -61 4 3 -5 5c-5,6 -6,12 -5,17 1,4 6,9 14,15l34 28 92 10c11,1 18,2 21,1 3,0 8,-2 15,-5 2,-1 4,-2 6,-5l4 3 -50 61 -4 -3 3 -3c2,-3 4,-7 5,-11 0,-4 -1,-8 -4,-10 -2,-2 -9,-4 -19,-5l-70 -8 21 65c3,9 6,15 9,18 2,2 5,3 7,3 2,0 5,0 7,-2 3,-1 5,-3 8,-7l4 3zm-169 55l-69 51 33 43c5,7 9,12 12,14 2,1 5,1 8,1 5,-1 9,-2 12,-5l5 -4 3 4 -63 48 -3 -4 5 -4c4,-3 6,-6 8,-10 2,-3 2,-6 1,-9 -1,-3 -4,-8 -9,-15l-73 -96c-5,-7 -10,-12 -12,-14 -2,-1 -5,-1 -8,-1 -5,1 -9,2 -12,5l-6 4 -3 -4 64 -48 3 4 -5 4c-7,5 -10,10 -10,15 0,4 4,10 10,19l34 45 69 -51 -34 -46c-6,-7 -10,-12 -13,-13 -2,-2 -5,-2 -8,-1 -4,0 -8,2 -12,4l-5 4 -3 -4 63 -47 3 4 -5 4c-6,4 -9,9 -9,15 0,4 3,10 10,19l72 95c6,8 10,12 13,14 2,1 4,2 8,1 4,0 8,-2 12,-5l5 -4 3 4 -63 48 -4 -4 6 -4c3,-2 6,-6 8,-10 1,-3 1,-5 1,-8 -1,-3 -5,-9 -10,-16l-32 -42zm-266 119l66 -29 -1 -32c0,-8 -1,-13 -2,-16 -1,-3 -4,-5 -7,-6 -3,0 -9,1 -17,4l-3 -5 54 -24 2 5c-7,4 -10,8 -12,11 -2,6 -3,16 -3,30l4 166 -5 2 -122 -114c-10,-9 -17,-14 -23,-16 -5,-2 -11,-1 -18,2l-2 -5 66 -30 2 5c-6,3 -10,6 -12,9 -1,3 -1,6 0,9 1,3 6,8 13,15l20 19zm8 8l60 55 -2 -81 -58 26zm-68 150l-49 7 -134 -119 17 106c1,11 4,18 7,20 4,3 9,5 17,3l6 -1 1 5 -64 11 -1 -5 6 -1c8,-2 13,-5 16,-10 1,-3 1,-10 0,-20l-25 -154 5 -1 144 128 -18 -113c-2,-11 -4,-18 -7,-21 -4,-3 -10,-4 -17,-3l-7 1 0 -5 64 -10 1 5 -7 1c-8,1 -13,5 -15,10 -2,3 -2,10 0,20l20 127c6,6 11,9 14,11 3,1 8,2 13,3 3,1 7,0 12,0l1 5zm-376 -61l-85 -14 -8 53c-2,9 -2,16 -2,19 1,2 3,4 5,6 4,3 8,5 12,6l7 1 -1 5 -79 -13 1 -5 7 1c4,1 8,0 12,-1 4,-1 6,-3 7,-6 2,-2 3,-8 5,-17l19 -118c1,-10 2,-16 1,-19 -1,-2 -2,-5 -5,-7 -3,-3 -7,-4 -12,-5l-6 -1 1 -5 78 13 -1 5 -6 -1c-8,-2 -13,0 -18,4 -2,2 -4,9 -6,20l-9 55 85 14 8 -56c2,-9 2,-15 2,-18 -1,-3 -2,-5 -5,-7 -4,-3 -7,-4 -12,-5l-6 -1 0 -5 79 12 -1 5 -6 -1c-8,-1 -14,1 -18,4 -3,3 -5,10 -7,21l-19 118c-1,9 -2,15 -1,19 1,2 2,4 5,6 3,3 7,5 12,5l6 1 -1 5 -78 -12 1 -5 6 1c5,1 9,0 13,-1 3,-1 5,-3 7,-6 1,-2 3,-8 4,-17l9 -53zm-301 10c-22,-11 -37,-28 -45,-52 -8,-24 -7,-48 5,-73 12,-25 29,-43 53,-52 24,-9 48,-9 71,2 23,11 38,28 46,52 8,23 6,48 -6,74 -12,27 -31,44 -57,53 -23,7 -45,6 -67,-4zm6 -8c15,7 30,7 44,0 18,-9 33,-27 46,-53 12,-28 16,-52 11,-72 -3,-15 -13,-26 -27,-33 -16,-8 -32,-7 -48,0 -16,8 -30,25 -42,51 -14,29 -18,53 -13,72 4,16 13,27 29,35zm-270 -163l37 -52 3 3c-7,18 -10,34 -7,47 3,13 10,24 21,33 10,8 20,12 32,14 12,1 24,-2 37,-9 13,-7 26,-18 39,-34 10,-13 17,-26 21,-39 4,-13 3,-25 -1,-37 -4,-12 -11,-22 -22,-31 -9,-7 -19,-12 -29,-14 -11,-2 -25,0 -43,5l-2 -5c18,-7 34,-9 48,-7 15,1 28,8 42,18 23,20 34,44 33,72 -1,21 -9,40 -23,58 -12,14 -26,25 -42,32 -16,7 -33,9 -49,6 -17,-2 -32,-9 -45,-20 -10,-8 -18,-19 -24,-32 -2,-4 -3,-7 -5,-8 -2,-1 -4,-2 -6,-2 -4,0 -7,2 -11,5l-4 -3zm-13 -141l-52 -69 -42 33c-8,5 -12,10 -14,12 -1,2 -2,5 -1,8 0,5 2,9 5,12l4 5 -4 4 -48 -64 4 -3 4 5c2,4 6,7 10,8 3,2 6,2 9,1 3,-1 8,-4 15,-9l96 -73c7,-5 12,-9 13,-12 2,-2 2,-5 2,-8 -1,-5 -3,-9 -5,-12l-4 -5 4 -3 47 63 -4 3 -3 -5c-5,-6 -10,-9 -16,-10 -4,0 -10,4 -19,10l-45 34 52 69 45 -34c8,-6 12,-10 14,-13 1,-2 2,-5 1,-8 -1,-4 -2,-8 -5,-12l-4 -5 4 -3 48 63 -4 3 -4 -5c-5,-6 -10,-9 -15,-9 -4,0 -10,3 -19,10l-96 72c-7,6 -12,10 -14,13 -1,2 -1,4 -1,8 1,4 3,8 5,12l4 5 -4 3 -48 -63 4 -3 4 5c3,3 6,6 10,8 3,1 6,2 9,1 3,-1 8,-4 15,-10l43 -32zm-120 -265l29 65 32 0c8,0 13,-1 17,-3 2,-1 4,-3 5,-6 0,-4 -1,-10 -4,-18l5 -2 24 53 -5 2c-4,-6 -8,-10 -11,-11 -6,-3 -16,-4 -30,-3l-166 3 -2 -4 114 -122c9,-10 14,-18 16,-23 2,-6 1,-12 -2,-19l5 -2 30 67 -4 2c-4,-7 -7,-11 -10,-12 -3,-2 -6,-2 -9,-1 -3,2 -8,6 -15,13l-19 21zm-8 8l-55 59 81 -2 -26 -57z"/>
  <path class="fil1" d="M721 1165l0 74 41 0c11,0 18,-2 21,-5 5,-4 7,-12 8,-22l5 0 0 64 -5 0c-1,-9 -3,-15 -4,-17 -1,-3 -4,-6 -8,-8 -4,-1 -9,-2 -17,-2l-41 0 0 61c0,8 1,13 1,15 1,1 2,3 4,4 2,1 5,2 10,2l32 0c10,0 18,-1 23,-3 4,-1 9,-4 13,-8 6,-6 12,-14 18,-26l5 0 -16 47 -143 0 0 -5 7 0c4,0 8,-2 12,-4 3,-1 5,-3 6,-6 1,-3 2,-9 2,-18l0 -121c0,-11 -1,-19 -4,-21 -3,-4 -8,-6 -16,-6l-7 0 0 -5 143 0 2 41 -5 0c-2,-10 -4,-17 -7,-20 -2,-4 -5,-7 -10,-9 -3,-1 -10,-2 -19,-2l-51 0zm170 89l0 54c0,12 1,19 4,22 3,4 8,6 15,6l7 0 0 5 -79 0 0 -5 7 0c8,0 13,-3 17,-8 2,-3 3,-10 3,-20l0 -120c0,-12 -2,-19 -4,-22 -4,-4 -9,-6 -16,-6l-7 0 0 -5 68 0c16,0 29,2 39,5 10,4 18,10 24,18 7,8 10,17 10,28 0,16 -5,28 -15,37 -10,10 -24,15 -42,15 -5,0 -9,-1 -15,-1 -5,-1 -10,-2 -16,-3zm0 -8c5,1 9,1 13,2 3,0 6,1 9,1 10,0 18,-4 25,-11 6,-8 10,-17 10,-29 0,-8 -2,-15 -5,-22 -3,-7 -8,-12 -14,-15 -6,-4 -13,-6 -20,-6 -5,0 -11,1 -18,3l0 77zm232 -86l0 -5 65 0 0 5 -7 0c-8,0 -13,3 -17,9 -2,3 -3,10 -3,20l0 75c0,19 -2,33 -5,43 -4,11 -11,19 -22,27 -11,7 -25,11 -44,11 -20,0 -36,-4 -46,-11 -10,-7 -18,-16 -22,-28 -3,-8 -5,-23 -5,-46l0 -72c0,-11 -1,-19 -4,-22 -3,-4 -8,-6 -15,-6l-7 0 0 -5 80 0 0 5 -8 0c-7,0 -13,3 -16,7 -2,4 -3,11 -3,21l0 81c0,7 0,15 2,24 1,10 3,17 7,22 3,5 8,10 15,13 6,3 14,5 24,5 12,0 23,-3 32,-8 10,-5 16,-12 20,-20 3,-8 5,-22 5,-42l0 -75c0,-12 -1,-19 -4,-22 -3,-4 -9,-6 -16,-6l-6 0zm197 86c13,3 22,7 29,13 8,8 13,19 13,31 0,9 -3,18 -9,26 -6,9 -14,15 -24,19 -10,4 -25,6 -46,6l-87 0 0 -5 6 0c8,0 14,-3 17,-8 2,-3 3,-10 3,-20l0 -120c0,-12 -1,-19 -4,-22 -3,-4 -9,-6 -16,-6l-6 0 0 -5 79 0c15,0 27,1 36,4 14,3 24,9 31,17 8,8 11,18 11,29 0,9 -3,17 -8,25 -6,7 -14,12 -25,16zm-72 -8c4,1 8,1 12,2 4,0 9,0 14,0 13,0 23,-1 30,-4 7,-3 12,-7 15,-13 4,-6 6,-13 6,-19 0,-11 -5,-20 -14,-28 -8,-8 -21,-12 -38,-12 -9,0 -17,1 -25,3l0 71zm0 89c11,3 21,4 32,4 16,0 29,-4 38,-11 8,-8 13,-17 13,-28 0,-7 -2,-14 -7,-21 -4,-6 -10,-11 -19,-15 -9,-4 -19,-6 -32,-6 -6,0 -11,0 -15,0 -4,0 -7,1 -10,1l0 76zm328 -81c13,3 23,7 29,13 9,8 13,19 13,31 0,9 -3,18 -9,26 -5,9 -13,15 -23,19 -11,4 -26,6 -47,6l-87 0 0 -5 7 0c7,0 13,-3 16,-8 2,-3 3,-10 3,-20l0 -120c0,-12 -1,-19 -3,-22 -4,-4 -9,-6 -16,-6l-7 0 0 -5 80 0c15,0 27,1 36,4 13,3 24,9 31,17 7,8 11,18 11,29 0,9 -3,17 -9,25 -6,7 -14,12 -25,16zm-71 -8c3,1 7,1 11,2 5,0 9,0 14,0 14,0 24,-1 30,-4 7,-3 12,-7 16,-13 3,-6 5,-13 5,-19 0,-11 -4,-20 -13,-28 -9,-8 -22,-12 -39,-12 -9,0 -17,1 -24,3l0 71zm0 89c10,3 21,4 31,4 17,0 29,-4 38,-11 9,-8 13,-17 13,-28 0,-7 -2,-14 -6,-21 -4,-6 -11,-11 -19,-15 -9,-4 -20,-6 -33,-6 -6,0 -11,0 -15,0 -4,0 -7,1 -9,1l0 76zm262 -172l65 0 0 5 -4 0c-2,0 -6,1 -10,3 -5,3 -9,6 -13,9 -3,4 -8,11 -13,20l-45 69 0 47c0,12 1,19 4,22 3,4 9,6 16,6l7 0 0 5 -80 0 0 -5 7 0c8,0 13,-3 17,-8 2,-3 3,-9 3,-20l0 -43 -51 -78c-6,-9 -10,-15 -12,-17 -2,-3 -7,-5 -13,-8 -2,-1 -5,-2 -8,-2l0 -5 79 0 0 5 -4 0c-5,0 -9,1 -12,3 -4,2 -6,5 -6,9 0,4 3,10 9,18l38 60 37 -57c5,-9 8,-15 8,-19 0,-3 -1,-5 -2,-7 -2,-2 -3,-4 -6,-5 -2,-1 -6,-2 -11,-2l0 -5z"/>
  <polygon class="fil0 str0" points="2151,1175 2168,1233 2226,1233 2179,1268 2197,1325 2151,1290 2105,1325 2122,1268 2076,1233 2133,1233 "/>
  <polygon class="fil0 str0" points="358,1155 376,1213 433,1213 387,1248 404,1306 358,1270 312,1306 330,1248 283,1213 341,1213 "/>
  <circle class="fil0 str1" cx="1250" cy="1250" r="1050"/>
 </g>
</svg>
