<?xml version="1.0" encoding="UTF-8" standalone="no"?>
<svg
   xmlns:dc="http://purl.org/dc/elements/1.1/"
   xmlns:cc="http://creativecommons.org/ns#"
   xmlns:rdf="http://www.w3.org/1999/02/22-rdf-syntax-ns#"
   xmlns:svg="http://www.w3.org/2000/svg"
   xmlns="http://www.w3.org/2000/svg"
   id="svg2"
   height="355.87637"
   width="1062.9921"
   version="1.1">
  <metadata
     id="metadata29">
  </metadata>
  <defs
     id="defs4" />
  <g
     id="layer1"
     transform="translate(-257.79953,-223.27399)">
    <g
       id="g2684"
       transform="matrix(6.3303485,0,0,6.3303485,-1149.8574,-2863.1756)">
      <path
         style="fill:#000000;fill-opacity:1;fill-rule:nonzero;stroke:none"
         id="path2433"
         d="m 291.69517,520.73143 0,5.045 c 0,1.035 -0.285,1.78375 -0.855,2.24625 -0.57,0.44625 -1.19375,0.6075 -2.49625,0.6075 -1.19375,0 -1.81875,-0.12625 -2.38875,-0.4825 -0.695,-0.46375 -1.03375,-1.23 -1.03375,-2.37125 l 0,-7.43375 c 0,-1.105 0.32,-1.8725 0.9975,-2.3175 0.57125,-0.3925 1.195,-0.5175 2.425,-0.5175 1.3025,0 1.92625,0.16 2.49625,0.60625 0.57,0.46375 0.855,1.2125 0.855,2.22875 l 0,0.945 -2.62,0 0,-0.48125 c 0,-0.73125 -0.24875,-1.10625 -0.76625,-1.10625 -0.5175,0 -0.76625,0.375 -0.76625,1.10625 l 0,6.525 c 0,0.7125 0.24875,1.0875 0.76625,1.0875 0.5175,0 0.76625,-0.35625 0.76625,-1.0875 l 0,-2.4075 -0.74875,0 0,-2.1925 3.36875,0" />
      <path
         style="fill:#000000;fill-opacity:1;fill-rule:nonzero;stroke:none"
         id="path2437"
         d="m 293.17642,518.34268 c 0,-1.105 0.32,-1.8725 0.9975,-2.3175 0.57125,-0.375 1.195,-0.5175 2.40625,-0.5175 1.32,0 1.945,0.1425 2.515,0.60625 0.57,0.46375 0.855,1.2125 0.855,2.22875 l 0,7.4525 c 0,1.01625 -0.285,1.765 -0.855,2.2275 -0.57,0.44625 -1.195,0.6075 -2.49625,0.6075 -1.195,0 -1.81875,-0.12625 -2.38875,-0.4825 -0.69625,-0.46375 -1.03375,-1.23 -1.03375,-2.3525 l 0,-7.4525 z m 4.15375,0.46375 c 0,-0.73125 -0.25,-1.10625 -0.76625,-1.10625 -0.5175,0 -0.7675,0.375 -0.7675,1.10625 l 0,6.525 c 0,0.73125 0.25,1.105 0.7675,1.105 0.51625,0 0.76625,-0.37375 0.76625,-1.105 l 0,-6.525" />
      <path
         style="fill:#000000;fill-opacity:1;fill-rule:nonzero;stroke:none"
         id="path2441"
         d="m 307.02892,517.89643 -2.78125,0 0,2.835 2.65625,0 0,2.1925 -2.65625,0 0,3.31625 2.78125,0 0,2.19375 -5.4025,0 0,-12.73 5.4025,0 0,2.1925" />
      <path
         style="fill:#000000;fill-opacity:1;fill-rule:nonzero;stroke:none"
         id="path2445"
         d="m 314.28517,515.70393 0,2.1925 -1.925,0 0,10.5375 -2.62125,0 0,-10.5375 -1.94375,0 0,-2.1925 6.49,0" />
      <path
         style="fill:#000000;fill-opacity:1;fill-rule:nonzero;stroke:none"
         id="path2449"
         d="m 319.63267,515.70393 2.62125,0 0,12.73 -2.62125,0 0,-5.51 -1.5325,0 0,5.51 -2.62125,0 0,-12.73 2.62125,0 0,5.0275 1.5325,0 0,-5.0275" />
      <path
         style="fill:#000000;fill-opacity:1;fill-rule:nonzero;stroke:none"
         id="path2453"
         d="m 329.51017,517.89643 -2.78125,0 0,2.835 2.65625,0 0,2.1925 -2.65625,0 0,3.31625 2.78125,0 0,2.19375 -5.4025,0 0,-12.73 5.4025,0 0,2.1925" />
      <path
         style="fill:#000000;fill-opacity:1;fill-rule:nonzero;stroke:none"
         id="path2455"
         d="m 330.68642,522.10393 3.3875,0 0,2.10375 -3.3875,0 0,-2.10375 z" />
      <path
         style="fill:#000000;fill-opacity:1;fill-rule:nonzero;stroke:none"
         id="path2457"
         d="m 335.66017,515.70393 2.62125,0 0,12.73 -2.62125,0 0,-12.73 z" />
      <path
         style="fill:#000000;fill-opacity:1;fill-rule:nonzero;stroke:none"
         id="path2461"
         d="m 348.10517,528.43393 -3.1025,0 -2.08625,-7.0075 c -0.0175,-0.035 -0.10625,-0.37375 -0.17875,-0.7125 -0.035,-0.17875 -0.16,-0.73125 -0.35625,-1.64125 0.16,1.76625 0.16,1.81875 0.16,2.21125 l 0,7.15 -2.37,0 0,-12.73 3.12,0 1.97875,6.29375 c 0.125,0.4275 0.23125,0.78375 0.285,1.0875 0.0713,0.285 0.1425,0.57 0.19625,0.855 0.0537,0.215 0.16,0.6775 0.285,1.195 -0.23125,-1.44375 -0.3025,-2.015 -0.3025,-2.63875 l 0,-6.7925 2.37125,0 0,12.73" />
      <path
         style="fill:#000000;fill-opacity:1;fill-rule:nonzero;stroke:none"
         id="path2465"
         d="m 353.72017,519.43018 c -0.0175,-0.9275 -0.0537,-1.1775 -0.21375,-1.40875 -0.1425,-0.21375 -0.35625,-0.32125 -0.60625,-0.32125 -0.445,0 -0.7125,0.3575 -0.7125,0.98125 0,0.85625 0.285,1.28375 1.6225,2.335 1.97875,1.605 2.495,2.49625 2.495,4.315 0,1.2125 -0.23125,1.96125 -0.74875,2.53125 -0.535,0.57125 -1.15875,0.7675 -2.44125,0.7675 -2.8175,0 -3.62,-0.73125 -3.62,-3.29875 0,-0.125 0,-0.46375 0.0175,-0.785 l 2.60375,0 0,0.48125 c 0,0.6075 0.0175,0.82 0.12375,1.035 0.1075,0.23125 0.3575,0.37375 0.625,0.37375 0.5175,0 0.76625,-0.35625 0.76625,-1.0875 0,-0.87375 -0.24875,-1.30125 -1.14125,-2.01375 -1.44375,-1.16 -1.83625,-1.49875 -2.22875,-2.05125 -0.49875,-0.64125 -0.74875,-1.4975 -0.74875,-2.49625 0,-1.06875 0.285,-1.96125 0.785,-2.495 0.48125,-0.535 1.28375,-0.785 2.53125,-0.785 2.47875,0 3.3875,0.8375 3.3875,3.1025 0,0.21375 0,0.48125 -0.0175,0.82 l -2.47875,0" />
      <path
         style="fill:#000000;fill-opacity:1;fill-rule:nonzero;stroke:none"
         id="path2469"
         d="m 363.42017,515.70393 0,2.1925 -1.925,0 0,10.5375 -2.62125,0 0,-10.5375 -1.94375,0 0,-2.1925 6.49,0" />
      <path
         style="fill:#000000;fill-opacity:1;fill-rule:nonzero;stroke:none"
         id="path2471"
         d="m 364.61517,515.70393 2.62,0 0,12.73 -2.62,0 0,-12.73 z" />
      <path
         style="fill:#000000;fill-opacity:1;fill-rule:nonzero;stroke:none"
         id="path2475"
         d="m 374.90142,515.70393 0,2.1925 -1.925,0 0,10.5375 -2.62125,0 0,-10.5375 -1.94375,0 0,-2.1925 6.49,0" />
      <path
         style="fill:#000000;fill-opacity:1;fill-rule:nonzero;stroke:none"
         id="path2479"
         d="m 382.74642,525.31393 c 0,2.37 -0.96375,3.31625 -3.40625,3.31625 -0.92625,0 -1.60375,-0.14375 -2.15625,-0.46375 -0.89125,-0.5 -1.2125,-1.26625 -1.2125,-2.8525 l 0,-9.61 2.62,0 0,9.61 c 0,0.74875 0.25,1.1225 0.7675,1.1225 0.49875,0 0.76625,-0.37375 0.76625,-1.1225 l 0,-9.61 2.62125,0 0,9.61" />
      <path
         style="fill:#000000;fill-opacity:1;fill-rule:nonzero;stroke:none"
         id="path2483"
         d="m 390.28642,515.70393 0,2.1925 -1.925,0 0,10.5375 -2.62,0 0,-10.5375 -1.94375,0 0,-2.1925 6.48875,0" />
      <path
         style="fill:#73be42;fill-opacity:1;fill-rule:nonzero;stroke:none"
         id="path2487"
         d="m 260.36517,497.81518 c 0,4.4 3.5675,7.9675 7.9675,7.9675 4.39875,0 7.96625,-3.5675 7.96625,-7.9675 0,-4.4 -3.5675,-7.9675 -7.96625,-7.9675 -4.4,0 -7.9675,3.5675 -7.9675,7.9675 z m -2.285,-10e-4 c 0,-5.66125 4.59,-10.25 10.2525,-10.25 5.6625,0 10.25125,4.58875 10.25125,10.25 0,5.6625 -4.58875,10.2525 -10.25125,10.2525 -5.6625,0 -10.2525,-4.59 -10.2525,-10.2525" />
      <path
         style="fill:#73be42;fill-opacity:1;fill-rule:nonzero;stroke:none"
         id="path2491"
         d="m 260.55517,515.67393 -2.2225,0 c 0,4.3325 -3.5275,7.84375 -7.85875,7.84375 -4.33375,0 -7.845,-3.51125 -7.845,-7.84375 0,-4.3325 3.51125,-7.845 7.845,-7.845 l 0.001,-2.24 c -5.57625,0 -10.095,4.51 -10.095,10.08375 0,5.575 4.51875,10.09375 10.09375,10.09375 5.575,0 10.08125,-4.5175 10.08125,-10.0925" />
      <path
         style="fill:#73be42;fill-opacity:1;fill-rule:nonzero;stroke:none"
         id="path2495"
         d="m 262.82142,515.67393 2.2325,-0.001 c 0,8.04375 -6.53625,14.565 -14.58,14.565 -8.0425,0 -14.5625,-6.52125 -14.5625,-14.565 0,-8.0425 6.52,-14.5625 14.5625,-14.5625 l 0.001,2.23875 c -6.80875,0 -12.3275,5.51625 -12.3275,12.32375 0,6.80875 5.51875,12.3275 12.32625,12.3275 6.8075,0 12.3475,-5.5175 12.3475,-12.32625" />
      <path
         style="fill:#73be42;fill-opacity:1;fill-rule:nonzero;stroke:none"
         id="path2499"
         d="m 269.53517,515.67393 -2.24625,0 c 0,9.27875 -7.53625,16.8 -16.815,16.8 -9.28,0 -16.8,-7.52125 -16.8,-16.8 0,-9.27875 7.52,-16.8 16.8,-16.8 l 0.001,-2.2625 c -10.54,0 -19.085,8.5225 -19.085,19.06125 0,10.54 8.545,19.085 19.08375,19.085 10.54,0 19.06125,-8.54375 19.06125,-19.08375" />
      <path
         style="fill:#73be42;fill-opacity:1;fill-rule:nonzero;stroke:none"
         id="path2503"
         d="m 274.06892,515.67393 -2.245,-0.001 c 0,11.7825 -9.56625,21.33375 -21.34875,21.33375 -11.7825,0 -21.33375,-9.55125 -21.33375,-21.33375 0,-11.7825 9.55125,-21.33375 21.33375,-21.33375 l 0,-2.27625 c -13.03875,0 -23.61,10.57 -23.61,23.61 0,13.04 10.57125,23.61 23.61,23.61 13.03875,0 23.59375,-10.56875 23.59375,-23.60875" />
      <path
         style="fill:#73be42;fill-opacity:1;fill-rule:nonzero;stroke:none"
         id="path2507"
         d="m 278.58392,515.67393 -2.22375,-0.001 c 0,14.2875 -11.5975,25.86875 -25.885,25.86875 -14.2875,0 -25.87,-11.58125 -25.87,-25.86875 0,-14.2875 11.5825,-25.86875 25.87,-25.86875 l 0,-2.24 c -15.525,0 -28.10875,12.585 -28.10875,28.10875 0,15.52375 12.585,28.10875 28.10875,28.10875 15.525,0 28.10875,-12.5825 28.10875,-28.1075" />
    </g>
  </g>
</svg>
